<?xml version="1.0" encoding="UTF-8"?>
<!-- Generated by Pixelmator Pro 3.6.15 -->
<svg width="3300" height="2200" viewBox="0 0 3300 2200" xmlns="http://www.w3.org/2000/svg">
    <g id="Notes">
        <path id="artboard" fill="#ffffff" stroke="none" d="M 0 0 L 3300 0 L 3300 2200 L 0 2200 Z"/>
        <path id="Path" fill="none" stroke="#000000" stroke-width="0.5" d="M 263 292 L 3036 292"/>
        <text id="WeightScale-Variations" xml:space="preserve" x="262" y="324" font-family="Helvetica" font-size="13" font-weight="700" fill="#000000">Weight/Scale Variations</text>
        <text id="Ultralight" xml:space="preserve" x="532.352295" y="324" font-family="Helvetica" font-size="13" fill="#000000">Ultralight</text>
        <text id="Thin" xml:space="preserve" x="841.355469" y="324" font-family="Helvetica" font-size="13" fill="#000000">Thin</text>
        <text id="Light" xml:space="preserve" x="1137.905029" y="324" font-family="Helvetica" font-size="13" fill="#000000">Light</text>
        <text id="Regular" xml:space="preserve" x="1425.237305" y="324" font-family="Helvetica" font-size="13" fill="#000000">Regular</text>
        <text id="Medium" xml:space="preserve" x="1721.881836" y="324" font-family="Helvetica" font-size="13" fill="#000000">Medium</text>
        <text id="Semibold" xml:space="preserve" x="2014.901855" y="324" font-family="Helvetica" font-size="13" fill="#000000">Semibold</text>
        <text id="Bold" xml:space="preserve" x="2324.990479" y="324" font-family="Helvetica" font-size="13" fill="#000000">Bold</text>
        <text id="Heavy" xml:space="preserve" x="2616.575928" y="324" font-family="Helvetica" font-size="13" fill="#000000">Heavy</text>
        <text id="Black" xml:space="preserve" x="2915.105469" y="324" font-family="Helvetica" font-size="13" fill="#000000">Black</text>
        <path id="path1" fill="none" stroke="#000000" stroke-width="0.5" d="M 263 1903 L 3036 1903"/>
        <g id="Group">
            <path id="path2" fill="#000000" stroke="none" d="M 272.248047 1933.830078 C 276.603516 1933.830078 280.138672 1930.304688 280.138672 1925.949219 C 280.138672 1921.59375 276.603516 1918.068359 272.248047 1918.068359 C 267.902344 1918.068359 264.367188 1921.59375 264.367188 1925.949219 C 264.367188 1930.304688 267.902344 1933.830078 272.248047 1933.830078 Z M 272.248047 1932.345703 C 268.712891 1932.345703 265.861328 1929.484375 265.861328 1925.949219 C 265.861328 1922.414063 268.712891 1919.552734 272.248047 1919.552734 C 275.783203 1919.552734 278.644531 1922.414063 278.644531 1925.949219 C 278.644531 1929.484375 275.783203 1932.345703 272.248047 1932.345703 Z M 268.654266 1925.949219 C 268.654266 1926.378906 268.957001 1926.671875 269.406219 1926.671875 L 271.505829 1926.671875 L 271.505829 1928.791016 C 271.505829 1929.230469 271.798798 1929.533203 272.228485 1929.533203 C 272.677704 1929.533203 272.970673 1929.230469 272.970673 1928.791016 L 272.970673 1926.671875 L 275.089813 1926.671875 C 275.529266 1926.671875 275.832001 1926.378906 275.832001 1925.949219 C 275.832001 1925.509766 275.529266 1925.207031 275.089813 1925.207031 L 272.970673 1925.207031 L 272.970673 1923.097656 C 272.970673 1922.648438 272.677704 1922.345703 272.228485 1922.345703 C 271.798798 1922.345703 271.505829 1922.648438 271.505829 1923.097656 L 271.505829 1925.207031 L 269.406219 1925.207031 C 268.957031 1925.207031 268.654266 1925.509766 268.654266 1925.949219 Z"/>
        </g>
        <g id="g1">
            <path id="path3" fill="#000000" stroke="none" d="M 293.214966 1935.910156 C 298.713013 1935.910156 303.175934 1931.447266 303.175934 1925.949219 C 303.175934 1920.451172 298.713013 1915.988281 293.214966 1915.988281 C 287.716949 1915.988281 283.254028 1920.451172 283.254028 1925.949219 C 283.254028 1931.447266 287.716949 1935.910156 293.214966 1935.910156 Z M 293.214966 1934.25 C 288.625153 1934.25 284.914215 1930.539063 284.914215 1925.949219 C 284.914215 1921.359375 288.625153 1917.648438 293.214966 1917.648438 C 297.80481 1917.648438 301.515747 1921.359375 301.515747 1925.949219 C 301.515747 1930.539063 297.80481 1934.25 293.214966 1934.25 Z M 288.683746 1925.949219 C 288.683746 1926.427734 289.015778 1926.75 289.513824 1926.75 L 292.384918 1926.75 L 292.384918 1929.630859 C 292.384918 1930.119141 292.716949 1930.460938 293.195465 1930.460938 C 293.683746 1930.460938 294.025543 1930.128906 294.025543 1929.630859 L 294.025543 1926.75 L 296.906403 1926.75 C 297.394684 1926.75 297.736481 1926.427734 297.736481 1925.949219 C 297.736481 1925.460938 297.394684 1925.119141 296.906403 1925.119141 L 294.025543 1925.119141 L 294.025543 1922.248047 C 294.025543 1921.75 293.683746 1921.408203 293.195465 1921.408203 C 292.716949 1921.408203 292.384918 1921.75 292.384918 1922.248047 L 292.384918 1925.119141 L 289.513824 1925.119141 C 289.015778 1925.119141 288.683746 1925.460938 288.683746 1925.949219 Z"/>
        </g>
        <g id="g2">
            <path id="path4" fill="#000000" stroke="none" d="M 319.894714 1938.664063 C 326.916168 1938.664063 332.619293 1932.970703 332.619293 1925.949219 C 332.619293 1918.927734 326.916168 1913.224609 319.894714 1913.224609 C 312.87323 1913.224609 307.179871 1918.927734 307.179871 1925.949219 C 307.179871 1932.970703 312.87323 1938.664063 319.894714 1938.664063 Z M 319.894714 1936.847656 C 313.869293 1936.847656 308.996246 1931.974609 308.996246 1925.949219 C 308.996246 1919.923828 313.869293 1915.050781 319.894714 1915.050781 C 325.920105 1915.050781 330.793152 1919.923828 330.793152 1925.949219 C 330.793152 1931.974609 325.920105 1936.847656 319.894714 1936.847656 Z M 314.12323 1925.949219 C 314.12323 1926.466797 314.494324 1926.828125 315.041199 1926.828125 L 318.986511 1926.828125 L 318.986511 1930.783203 C 318.986511 1931.320313 319.357605 1931.701172 319.875183 1931.701172 C 320.412292 1931.701172 320.783386 1931.330078 320.783386 1930.783203 L 320.783386 1926.828125 L 324.738464 1926.828125 C 325.275574 1926.828125 325.656433 1926.466797 325.656433 1925.949219 C 325.656433 1925.402344 325.285339 1925.03125 324.738464 1925.03125 L 320.783386 1925.03125 L 320.783386 1921.085938 C 320.783386 1920.539063 320.412292 1920.158203 319.875183 1920.158203 C 319.357605 1920.158203 318.986511 1920.539063 318.986511 1921.085938 L 318.986511 1925.03125 L 315.041199 1925.03125 C 314.494324 1925.03125 314.12323 1925.402344 314.12323 1925.949219 Z"/>
        </g>
        <text id="Design-Variations" xml:space="preserve" x="262" y="1955" font-family="Helvetica" font-size="13" font-weight="700" fill="#000000">Design Variations</text>
        <text id="Symbols-are-supported-in" xml:space="preserve" x="262" y="1973" font-family="Helvetica" font-size="13" fill="#000000">Symbols are supported in up to nine weights and three scales.</text>
        <text id="For-optimal-layout-with" xml:space="preserve" x="262" y="1991" font-family="Helvetica" font-size="13" fill="#000000">For optimal layout with text and other symbols, vertically align</text>
        <text id="symbols-with-the-adjacent" xml:space="preserve" x="262" y="2009" font-family="Helvetica" font-size="13" fill="#000000">symbols with the adjacent text.</text>
        <path id="path5" fill="none" stroke="#00aeef" stroke-width="0.5" d="M 776 1919 L 776 1933"/>
        <g id="g3">
            <path id="path6" fill="#000000" stroke="none" d="M 779.310547 1933.15625 C 779.828125 1933.15625 780.082031 1932.960938 780.267578 1932.414063 L 781.527344 1928.966797 L 787.289063 1928.966797 L 788.548828 1932.414063 C 788.734375 1932.960938 788.988281 1933.15625 789.496094 1933.15625 C 790.013672 1933.15625 790.345703 1932.84375 790.345703 1932.355469 C 790.345703 1932.189453 790.316406 1932.033203 790.238281 1931.828125 L 785.658203 1919.630859 C 785.433594 1919.035156 785.033203 1918.732422 784.408203 1918.732422 C 783.802734 1918.732422 783.392578 1919.025391 783.177734 1919.621094 L 778.597656 1931.837891 C 778.519531 1932.042969 778.490234 1932.199219 778.490234 1932.365234 C 778.490234 1932.853516 778.802734 1933.15625 779.310547 1933.15625 Z M 782.005859 1927.482422 L 784.378906 1920.910156 L 784.427734 1920.910156 L 786.800781 1927.482422 Z"/>
        </g>
        <path id="path7" fill="none" stroke="#00aeef" stroke-width="0.5" d="M 792.835999 1919 L 792.835999 1933"/>
        <text id="Margins" xml:space="preserve" x="775" y="1955" font-family="Helvetica" font-size="13" font-weight="700" fill="#000000">Margins</text>
        <text id="Leading-and-trailing-margins" xml:space="preserve" x="775" y="1973" font-family="Helvetica" font-size="13" fill="#000000">Leading and trailing margins on the left and right side of each symbol</text>
        <text id="can-be-adjusted-by" xml:space="preserve" x="775" y="1991" font-family="Helvetica" font-size="13" fill="#000000">can be adjusted by modifying the x-location of the margin guidelines.</text>
        <text id="Modifications-are-automatically-applied" xml:space="preserve" x="775" y="2009" font-family="Helvetica" font-size="13" fill="#000000">Modifications are automatically applied proportionally to all</text>
        <text id="scales-and-weights" xml:space="preserve" x="775" y="2027" font-family="Helvetica" font-size="13" fill="#000000">scales and weights.</text>
        <g id="g4">
            <path id="path8" fill="#000000" stroke="none" d="M 1291.841797 1934.865234 L 1293.541016 1936.574219 C 1294.400391 1937.443359 1295.386719 1937.384766 1296.314453 1936.359375 L 1307.007813 1924.572266 L 1306.041016 1923.595703 L 1295.425781 1935.275391 C 1295.074219 1935.675781 1294.742188 1935.773438 1294.273438 1935.304688 L 1293.101563 1934.142578 C 1292.632813 1933.683594 1292.740234 1933.341797 1293.140625 1932.980469 L 1304.615234 1922.179688 L 1303.638672 1921.212891 L 1292.046875 1932.101563 C 1291.060547 1933.019531 1290.982422 1933.996094 1291.841797 1934.865234 Z M 1298.257813 1916.671875 C 1297.837891 1917.082031 1297.808594 1917.658203 1298.042969 1918.048828 C 1298.277344 1918.410156 1298.736328 1918.644531 1299.380859 1918.478516 C 1300.845703 1918.136719 1302.369141 1918.078125 1303.794922 1919.015625 L 1303.208984 1920.470703 C 1302.867188 1921.300781 1303.042969 1921.886719 1303.580078 1922.433594 L 1305.875 1924.748047 C 1306.363281 1925.236328 1306.773438 1925.255859 1307.339844 1925.158203 L 1308.404297 1924.962891 L 1309.068359 1925.636719 L 1309.029297 1926.193359 C 1308.990234 1926.691406 1309.117188 1927.072266 1309.605469 1927.550781 L 1310.367188 1928.292969 C 1310.845703 1928.771484 1311.460938 1928.800781 1311.929688 1928.332031 L 1314.839844 1925.412109 C 1315.308594 1924.943359 1315.289063 1924.347656 1314.810547 1923.869141 L 1314.039063 1923.107422 C 1313.560547 1922.628906 1313.189453 1922.472656 1312.710938 1922.511719 L 1312.134766 1922.560547 L 1311.490234 1921.925781 L 1311.734375 1920.802734 C 1311.861328 1920.236328 1311.705078 1919.796875 1311.119141 1919.210938 L 1308.921875 1917.023438 C 1305.582031 1913.703125 1301.148438 1913.78125 1298.257813 1916.671875 Z M 1299.751953 1917.042969 C 1302.183594 1915.265625 1305.474609 1915.568359 1307.701172 1917.794922 L 1310.132813 1920.207031 C 1310.367188 1920.441406 1310.40625 1920.626953 1310.337891 1920.96875 L 1310.015625 1922.453125 L 1311.519531 1923.9375 L 1312.505859 1923.878906 C 1312.759766 1923.869141 1312.837891 1923.888672 1313.033203 1924.083984 L 1313.609375 1924.660156 L 1311.167969 1927.101563 L 1310.591797 1926.525391 C 1310.396484 1926.330078 1310.367188 1926.251953 1310.376953 1925.988281 L 1310.445313 1925.011719 L 1308.951172 1923.527344 L 1307.427734 1923.78125 C 1307.105469 1923.849609 1306.958984 1923.820313 1306.714844 1923.585938 L 1304.712891 1921.583984 C 1304.458984 1921.349609 1304.429688 1921.183594 1304.585938 1920.8125 L 1305.464844 1918.722656 C 1303.902344 1917.267578 1301.871094 1916.642578 1299.839844 1917.238281 C 1299.683594 1917.277344 1299.625 1917.150391 1299.751953 1917.042969 Z"/>
        </g>
        <text id="Exporting" xml:space="preserve" x="1288" y="1955" font-family="Helvetica" font-size="13" font-weight="700" fill="#000000">Exporting</text>
        <text id="Symbols-should-be-outlined" xml:space="preserve" x="1288" y="1973" font-family="Helvetica" font-size="13" fill="#000000">Symbols should be outlined when exporting to ensure the</text>
        <text id="design-is-preserved-when" xml:space="preserve" x="1288" y="1991" font-family="Helvetica" font-size="13" fill="#000000">design is preserved when submitting to Xcode.</text>
        <text id="template-version" xml:space="preserve" x="2949.414063" y="1935" font-family="Helvetica" font-size="13" fill="#000000">Template v.6.0</text>
        <text id="Requires-Xcode-16-or" xml:space="preserve" x="2862.45752" y="1953" font-family="Helvetica" font-size="13" fill="#000000">Requires Xcode 16 or greater</text>
        <text id="Generated-from-circle" xml:space="preserve" x="2908.008301" y="1971" font-family="Helvetica" font-size="13" fill="#000000">Generated from circle</text>
        <text id="Typeset-at-1000-points" xml:space="preserve" x="2898.569336" y="1989" font-family="Helvetica" font-size="13" fill="#000000">Typeset at 100.0 points</text>
        <text id="Small" xml:space="preserve" x="262" y="728" font-family="Helvetica" font-size="13" fill="#000000">Small</text>
        <text id="text1" xml:space="preserve" x="262" y="1158" font-family="Helvetica" font-size="13" fill="#000000">Medium</text>
        <text id="Large" xml:space="preserve" x="262" y="1588" font-family="Helvetica" font-size="13" fill="#000000">Large</text>
    </g>
    <g id="Guides">
        <g id="H-reference">
            <path id="path9" fill="#27aae1" stroke="none" d="M 339.993652 696 L 342.637756 696 L 368.328094 628.867676 L 369.030304 628.867676 L 369.030304 625.541016 L 367.122589 625.541016 Z M 350.688507 671.520142 L 385.981506 671.520142 L 385.231506 669.271484 L 351.438507 669.271484 Z M 394.119598 696 L 396.763702 696 L 369.638214 625.541016 L 368.432587 625.541016 L 368.432587 628.867676 Z"/>
        </g>
        <path id="Baseline-S" fill="none" stroke="#27aae1" stroke-width="0.5" d="M 263 696 L 3036 696"/>
        <path id="Capline-S" fill="none" stroke="#27aae1" stroke-width="0.5" d="M 263 625.541016 L 3036 625.541016"/>
        <g id="g5">
            <path id="path10" fill="#27aae1" stroke="none" d="M 339.993652 1126 L 342.637756 1126 L 368.328094 1058.867676 L 369.030304 1058.867676 L 369.030304 1055.541016 L 367.122589 1055.541016 Z M 350.688507 1101.520142 L 385.981506 1101.520142 L 385.231506 1099.271484 L 351.438507 1099.271484 Z M 394.119598 1126 L 396.763702 1126 L 369.638214 1055.541016 L 368.432587 1055.541016 L 368.432587 1058.867676 Z"/>
        </g>
        <path id="Baseline-M" fill="none" stroke="#27aae1" stroke-width="0.5" d="M 263 1126 L 3036 1126"/>
        <path id="Capline-M" fill="none" stroke="#27aae1" stroke-width="0.5" d="M 263 1055.540039 L 3036 1055.540039"/>
        <g id="g6">
            <path id="path11" fill="#27aae1" stroke="none" d="M 339.993652 1556 L 342.637756 1556 L 368.328094 1488.867676 L 369.030304 1488.867676 L 369.030304 1485.541016 L 367.122589 1485.541016 Z M 350.688507 1531.52002 L 385.981506 1531.52002 L 385.231506 1529.271484 L 351.438507 1529.271484 Z M 394.119598 1556 L 396.763702 1556 L 369.638214 1485.541016 L 368.432587 1485.541016 L 368.432587 1488.867676 Z"/>
        </g>
        <path id="Baseline-L" fill="none" stroke="#27aae1" stroke-width="0.5" d="M 263 1556 L 3036 1556"/>
        <path id="Capline-L" fill="none" stroke="#27aae1" stroke-width="0.5" d="M 263 1485.540039 L 3036 1485.540039"/>
        <path id="right-margin-Black-S" fill="none" stroke="#00aeef" stroke-width="0.5" d="M 2982.22998 600.784912 L 2982.22998 720.120972"/>
        <path id="left-margin-Black-S" fill="none" stroke="#00aeef" stroke-width="0.5" d="M 2884.570068 600.784912 L 2884.570068 720.120972"/>
        <path id="right-margin-Regular-S" fill="none" stroke="#00aeef" stroke-width="0.5" d="M 1496.109985 600.784912 L 1496.109985 720.120972"/>
        <path id="left-margin-Regular-S" fill="none" stroke="#00aeef" stroke-width="0.5" d="M 1403.579956 600.784912 L 1403.579956 720.120972"/>
        <path id="right-margin-Ultralight-S" fill="none" stroke="#00aeef" stroke-width="0.5" d="M 603.77301 600.784912 L 603.77301 720.120972"/>
        <path id="left-margin-Ultralight-S" fill="none" stroke="#00aeef" stroke-width="0.5" d="M 515.648987 600.784912 L 515.648987 720.120972"/>
    </g>
    <g id="Symbols">
        <g id="Black-S">
            <path id="Shape-copy" fill="#000000" fill-rule="evenodd" stroke="none" d="M 2913.527832 700.070923 C 2913.956787 700.097412 2915.253174 700.107666 2916.408447 700.093872 C 2917.563721 700.079956 2918.8396 700.042114 2919.244141 700.009766 C 2919.648438 699.977417 2920.391113 699.921387 2920.894531 699.885254 C 2921.397705 699.849121 2922.336182 699.767456 2922.979736 699.703613 C 2923.623535 699.639893 2924.595703 699.532471 2925.140381 699.465088 C 2925.684814 699.397705 2926.508545 699.287842 2926.970703 699.221069 C 2927.432861 699.154297 2928.202393 699.032593 2928.681152 698.950684 C 2929.159668 698.868774 2929.686279 698.77771 2929.851318 698.748413 C 2930.016357 698.718994 2930.570068 698.610352 2931.081543 698.506836 C 2931.593262 698.40332 2932.53833 698.186035 2933.182129 698.023804 C 2933.825684 697.861694 2934.730469 697.617554 2935.192627 697.481445 C 2935.654541 697.345215 2936.370361 697.113525 2936.782959 696.966553 C 2937.195557 696.819458 2937.802979 696.596436 2938.133057 696.470947 C 2938.463135 696.345337 2939.246338 696.091431 2939.873535 695.906616 C 2940.500732 695.721802 2941.553955 695.3927 2942.214111 695.175171 C 2942.874268 694.957642 2943.819336 694.636353 2944.314453 694.46106 C 2944.80957 694.285889 2945.619873 693.989014 2946.11499 693.80127 C 2946.610107 693.613647 2947.474121 693.275269 2948.0354 693.049438 C 2948.596436 692.823608 2949.528076 692.436279 2950.105713 692.188721 C 2950.68335 691.941284 2951.682617 691.49646 2952.326172 691.200317 C 2952.969971 690.904175 2954.023193 690.399292 2954.666748 690.078491 C 2955.310547 689.757568 2956.215088 689.291138 2956.677246 689.04187 C 2957.139404 688.792725 2957.895508 688.372803 2958.357666 688.108765 C 2958.819824 687.844727 2959.5354 687.424683 2959.947998 687.175293 C 2960.360596 686.925781 2961.022217 686.50708 2961.418213 686.244873 C 2961.814453 685.982544 2962.448975 685.549683 2962.828613 685.283081 C 2963.208252 685.016357 2963.802246 684.582642 2964.148926 684.319336 C 2964.495361 684.055908 2965.116699 683.570313 2965.529297 683.240234 C 2965.941895 682.910156 2966.644043 682.324951 2967.0896 681.939697 C 2967.535156 681.554443 2968.29126 680.875488 2968.77002 680.430908 C 2969.248535 679.986206 2970.114746 679.136963 2970.69458 678.543579 C 2971.274658 677.950195 2972.054688 677.115601 2972.428223 676.688843 C 2972.801758 676.262085 2973.380371 675.57251 2973.714111 675.15625 C 2974.048096 674.740112 2974.541748 674.091919 2974.811523 673.715942 C 2975.081299 673.339966 2975.480469 672.748779 2975.69873 672.402222 C 2975.916992 672.055664 2976.286621 671.387329 2976.520508 670.917236 C 2976.75415 670.447021 2977.022217 669.816772 2977.116455 669.516724 C 2977.210449 669.216675 2977.316162 668.762451 2977.351074 668.507324 C 2977.392334 668.205322 2977.39502 667.906738 2977.358887 667.651245 C 2977.328369 667.435547 2977.249512 667.153687 2977.183594 667.025024 C 2977.11792 666.89624 2976.96167 666.685913 2976.836914 666.557617 C 2976.711914 666.429199 2976.460449 666.255859 2976.27832 666.172485 C 2976.096191 666.089111 2975.783691 665.985718 2975.584229 665.942871 C 2975.384521 665.900024 2975.026855 665.864014 2974.789307 665.862915 C 2974.488037 665.86145 2974.210693 665.907104 2973.872314 666.013916 C 2973.605713 666.098267 2972.760254 666.486084 2971.993896 666.875977 C 2971.227295 667.265869 2969.776611 668.021973 2968.77002 668.556152 C 2967.763184 669.090332 2966.250977 669.871094 2965.40918 670.290894 C 2964.567383 670.710815 2963.365723 671.293579 2962.738525 671.58606 C 2962.111328 671.878418 2961.071777 672.345703 2960.427979 672.62439 C 2959.784424 672.903076 2958.785156 673.321655 2958.20752 673.554688 C 2957.629883 673.787598 2956.725342 674.140015 2956.197021 674.338013 C 2955.668945 674.535889 2954.818359 674.844482 2954.306641 675.023804 C 2953.795166 675.203125 2952.903809 675.499146 2952.326172 675.681519 C 2951.748535 675.863892 2950.816895 676.144775 2950.255859 676.305542 C 2949.694824 676.466431 2948.762939 676.71875 2948.185303 676.866089 C 2947.607666 677.01355 2946.541016 677.255493 2945.814941 677.403564 C 2945.088623 677.551758 2943.900391 677.769653 2943.174316 677.887817 C 2942.447998 678.006104 2941.219238 678.181274 2940.443604 678.277222 C 2939.667969 678.373047 2938.749756 678.47998 2938.40332 678.514771 C 2938.056641 678.549561 2937.476074 678.605713 2937.113037 678.639648 C 2936.749756 678.673462 2936.101807 678.728149 2935.672607 678.760986 C 2935.243408 678.793823 2934.446777 678.8479 2933.9021 678.881226 C 2933.357666 678.914429 2932.263916 678.97583 2931.47168 679.0177 C 2930.545898 679.066528 2928.295166 679.093628 2925.17041 679.093628 C 2922.054199 679.093628 2919.792236 679.066406 2918.868896 679.017822 C 2918.07666 678.976196 2917.037109 678.914551 2916.55835 678.881104 C 2916.079834 678.847534 2915.377686 678.792358 2914.998047 678.758423 C 2914.618408 678.724487 2913.970215 678.65625 2913.557617 678.606812 C 2913.145264 678.557251 2912.253906 678.408447 2911.577393 678.276123 C 2910.900635 678.143677 2909.86084 677.928223 2909.266846 677.797241 C 2908.672607 677.666382 2907.700439 677.437866 2907.106201 677.289673 C 2906.512207 677.141479 2905.729004 676.937622 2905.365967 676.836792 C 2905.00293 676.735962 2904.314209 676.535278 2903.835693 676.390991 C 2903.356934 676.246704 2902.641357 676.044434 2902.245117 675.941406 C 2901.849121 675.838379 2901.200928 675.714844 2900.804932 675.66687 C 2900.223633 675.596436 2899.957275 675.592651 2899.424561 675.647339 C 2899.061523 675.684692 2898.562012 675.779175 2898.314453 675.857544 C 2898.066895 675.935791 2897.688721 676.10144 2897.474121 676.225464 C 2897.25 676.355103 2896.854492 676.681274 2896.543945 676.992676 C 2896.194336 677.343384 2895.905029 677.703613 2895.723877 678.014038 C 2895.570068 678.27771 2895.336182 678.765137 2895.204102 679.097046 C 2895.072021 679.428955 2894.881836 680.036621 2894.781494 680.447388 C 2894.681152 680.858154 2894.550537 681.585693 2894.491211 682.064331 C 2894.412598 682.699219 2894.383545 683.356567 2894.383545 684.494873 C 2894.383545 685.353027 2894.418945 686.40625 2894.462402 686.835449 C 2894.505859 687.264526 2894.593506 687.912598 2894.656982 688.275757 C 2894.720459 688.638794 2894.839111 689.205933 2894.920898 689.536011 C 2895.002686 689.866089 2895.148926 690.37915 2895.245361 690.67627 C 2895.342041 690.973267 2895.506104 691.429077 2895.609863 691.689087 C 2895.713623 691.949097 2895.930176 692.424927 2896.09082 692.74646 C 2896.251465 693.067993 2896.529541 693.557373 2896.708496 693.833984 C 2896.887695 694.110718 2897.196045 694.539551 2897.394043 694.787109 C 2897.592041 695.034668 2898.000244 695.470825 2898.30127 695.75647 C 2898.602051 696.041992 2899.098145 696.442749 2899.403564 696.647095 C 2899.709229 696.85144 2900.189941 697.134033 2900.471924 697.275024 C 2900.75415 697.416016 2901.29541 697.653687 2901.675049 697.803223 C 2902.054688 697.952637 2902.756836 698.198364 2903.235352 698.349243 C 2903.714111 698.5 2904.483643 698.717041 2904.945801 698.831665 C 2905.407959 698.946167 2906.20459 699.121094 2906.716309 699.220215 C 2907.227783 699.319458 2908.092041 699.467041 2908.636719 699.548096 C 2909.181152 699.629272 2909.856445 699.725586 2910.136963 699.762085 C 2910.41748 699.798584 2911.119629 699.872192 2911.697266 699.925659 C 2912.274902 699.979126 2913.098633 700.044556 2913.527832 700.070923 Z M 2952.926514 670.425659 C 2953.10791 670.451538 2953.526611 670.459351 2953.856689 670.443115 C 2954.186768 670.42688 2954.672852 670.36084 2954.936768 670.296387 C 2955.200928 670.231934 2955.687012 670.046387 2956.01709 669.883789 C 2956.383057 669.703735 2956.791504 669.440674 2957.063965 669.209961 C 2957.309814 669.001709 2957.695801 668.588379 2957.921875 668.29126 C 2958.147705 667.994263 2958.478516 667.454102 2958.656738 667.091064 C 2958.834961 666.727905 2959.073975 666.120361 2959.187988 665.740723 C 2959.302002 665.361206 2959.450928 664.766968 2959.518555 664.42041 C 2959.586426 664.073853 2959.686279 663.425781 2959.740723 662.980103 C 2959.794922 662.534546 2959.902344 661.818848 2959.979004 661.389771 C 2960.055664 660.960693 2960.191162 660.259399 2960.280029 659.831299 C 2960.368896 659.403198 2960.557129 658.56604 2960.698486 657.970825 C 2960.840088 657.375732 2961.118652 656.25415 2961.318115 655.478516 C 2961.517334 654.702759 2961.855225 653.433472 2962.068848 652.657837 C 2962.282471 651.882202 2962.677979 650.477905 2962.947998 649.537109 C 2963.217773 648.596436 2963.641357 647.151611 2963.88916 646.326416 C 2964.136719 645.501221 2964.54126 644.177979 2964.788086 643.385864 C 2965.034668 642.593628 2965.440918 641.324341 2965.690674 640.565186 C 2965.94043 639.80603 2966.33374 638.71228 2966.564941 638.134644 C 2966.796143 637.557007 2967.1604 636.625366 2967.374512 636.064209 C 2967.588867 635.503052 2967.856934 634.787354 2967.970703 634.473877 C 2968.084229 634.160278 2968.284912 633.59314 2968.416748 633.213623 C 2968.548828 632.833984 2968.791016 632.108887 2968.955322 631.602295 C 2969.119385 631.095703 2969.361816 630.299072 2969.493896 629.831909 C 2969.625977 629.364746 2969.787842 628.717773 2969.854004 628.394043 C 2969.919922 628.070435 2969.990234 627.555054 2970.010498 627.249023 C 2970.032227 626.918091 2970.01709 626.488037 2969.973389 626.188599 C 2969.932861 625.911499 2969.835205 625.481567 2969.756348 625.233276 C 2969.677734 624.984863 2969.51123 624.606201 2969.386475 624.391602 C 2969.256836 624.168335 2968.927979 623.77063 2968.617188 623.461426 C 2968.301758 623.147583 2967.899414 622.818848 2967.656982 622.67688 C 2967.42749 622.54248 2966.9729 622.318604 2966.646973 622.179443 C 2966.321045 622.040283 2965.69751 621.835571 2965.260986 621.724731 C 2964.824463 621.61377 2964.105469 621.473145 2963.663086 621.411987 C 2963.220703 621.350952 2962.520752 621.287231 2962.108398 621.302246 C 2961.489258 621.324829 2961.32373 621.348145 2960.796387 621.498413 C 2960.481934 621.588013 2959.918457 621.85437 2959.532227 622.051392 C 2959.145752 622.248413 2958.436768 622.632446 2957.993408 622.957642 C 2957.540771 623.289795 2956.763916 624.118652 2956.467285 624.571655 C 2956.248535 624.905762 2955.895508 625.639893 2955.696533 626.102051 C 2955.497314 626.564087 2955.194336 627.306763 2955.023193 627.752319 C 2954.852051 628.197998 2954.632324 628.778564 2954.534912 629.042603 C 2954.437256 629.306763 2954.196777 629.981812 2954.000488 630.542969 C 2953.803955 631.104126 2953.525391 631.914307 2953.381348 632.343384 C 2953.237061 632.772461 2952.997803 633.501587 2952.849121 633.963745 C 2952.700439 634.425781 2952.468262 635.195557 2952.333252 635.674072 C 2952.197998 636.15271 2951.860352 637.462524 2951.58252 638.584717 C 2951.304688 639.707031 2950.926758 641.300293 2950.742676 642.125488 C 2950.558594 642.950684 2950.299316 644.152466 2950.166504 644.796143 C 2950.033447 645.439697 2949.81543 646.560547 2949.681641 647.286621 C 2949.547852 648.012817 2949.361328 649.06604 2949.267334 649.627197 C 2949.173096 650.188354 2949.038086 651.03894 2948.967041 651.517578 C 2948.895996 651.996216 2948.784912 652.792847 2948.719971 653.287964 C 2948.655029 653.783081 2948.574951 654.444702 2948.541992 654.758301 C 2948.509033 655.071899 2948.443604 655.719971 2948.396973 656.198608 C 2948.350098 656.677246 2948.277588 657.581909 2948.235352 658.209106 C 2948.193359 658.836182 2948.158447 660.119019 2948.157959 661.059692 C 2948.157471 662.000366 2948.192139 663.175171 2948.235107 663.670288 C 2948.277832 664.165405 2948.379639 664.980713 2948.461182 665.481934 C 2948.542725 665.983276 2948.66333 666.599609 2948.729492 666.85144 C 2948.79541 667.103271 2948.919189 667.483765 2949.004395 667.696777 C 2949.089844 667.909912 2949.26416 668.245972 2949.391846 668.443604 C 2949.519531 668.641235 2949.745605 668.924438 2949.894287 669.072998 C 2950.042725 669.221558 2950.32959 669.449951 2950.531494 669.580444 C 2950.733398 669.71106 2951.113525 669.900635 2951.376221 670.001953 C 2951.638916 670.103271 2952.020996 670.229492 2952.225098 670.282349 C 2952.429199 670.335327 2952.744873 670.39978 2952.926514 670.425659 Z M 2928.182129 668.848755 C 2928.250732 668.983643 2928.312256 669.035278 2928.376709 669.012085 C 2928.428467 668.993286 2928.518066 668.921997 2928.575684 668.853516 C 2928.633301 668.785034 2928.748291 668.509033 2928.831299 668.240112 C 2928.914307 667.971191 2929.075195 667.319092 2929.188721 666.791016 C 2929.302002 666.262817 2929.460938 665.412109 2929.541748 664.900513 C 2929.622559 664.388916 2929.718262 663.727295 2929.754639 663.430176 C 2929.791016 663.133179 2929.847168 662.647095 2929.87915 662.349976 C 2929.911133 662.052979 2929.970947 661.364624 2930.011963 660.820435 C 2930.052734 660.276245 2930.084961 658.955078 2930.083496 657.884521 C 2930.081787 656.813965 2930.046875 655.517334 2930.005615 655.003174 C 2929.964355 654.488892 2929.878418 653.649536 2929.814453 653.137939 C 2929.750488 652.626343 2929.64209 651.883667 2929.57373 651.487549 C 2929.505127 651.091553 2929.37085 650.416382 2929.275146 649.987305 C 2929.179199 649.558105 2928.990479 648.815552 2928.855225 648.336914 C 2928.719971 647.858276 2928.487549 647.12915 2928.338623 646.716553 C 2928.189697 646.303955 2927.949463 645.688843 2927.804688 645.349731 C 2927.660156 645.010498 2927.376953 644.402954 2927.175293 643.99939 C 2926.973877 643.595947 2926.65918 643.009277 2926.476318 642.695679 C 2926.293213 642.38208 2925.939941 641.828491 2925.691162 641.465332 C 2925.442383 641.102295 2925.03125 640.548706 2924.777344 640.235107 C 2924.523682 639.921509 2924.143799 639.475098 2923.933105 639.243164 C 2923.722412 639.011108 2923.262695 638.549683 2922.911865 638.217773 C 2922.560791 637.885864 2922.00708 637.400391 2921.681641 637.138916 C 2921.355957 636.877441 2920.765381 636.44458 2920.369141 636.17688 C 2919.973145 635.909302 2919.324951 635.50647 2918.928955 635.28186 C 2918.532715 635.057129 2917.898193 634.726929 2917.518555 634.547974 C 2917.138916 634.368896 2916.55835 634.114136 2916.228271 633.981689 C 2915.898193 633.849243 2915.371582 633.651367 2915.058105 633.541992 C 2914.744385 633.432617 2914.150391 633.244751 2913.737793 633.124512 C 2913.325195 633.004272 2912.717529 632.842285 2912.387451 632.764526 C 2912.057373 632.686768 2911.517334 632.568848 2911.187256 632.502319 C 2910.857178 632.435791 2910.317139 632.338745 2909.987061 632.286743 C 2909.656982 632.234619 2909.076172 632.153687 2908.696777 632.106812 C 2908.317139 632.059937 2907.668945 631.99231 2907.256348 631.956665 C 2906.84375 631.921021 2906.059814 631.865112 2905.514404 631.83252 C 2904.96875 631.799927 2904.233398 631.773193 2903.880127 631.773193 C 2903.526855 631.773193 2902.825439 631.799927 2902.321533 631.832397 C 2901.817383 631.86499 2901.148438 631.921387 2900.834961 631.957642 C 2900.52124 631.994019 2900.02417 632.063477 2899.730225 632.112061 C 2899.436279 632.160522 2898.916992 632.266113 2898.576416 632.34668 C 2898.23584 632.427124 2897.702637 632.574463 2897.391846 632.674072 C 2897.081055 632.77356 2896.628174 632.93689 2896.385254 633.036987 C 2896.142578 633.137085 2895.727783 633.328125 2895.463867 633.46167 C 2895.199707 633.595093 2894.795898 633.829102 2894.56665 633.981689 C 2894.337158 634.134155 2893.999512 634.384399 2893.816406 634.537598 C 2893.633057 634.690796 2893.312256 634.992188 2893.103271 635.207153 C 2892.894287 635.422241 2892.628906 635.72998 2892.513672 635.891235 C 2892.398193 636.052368 2892.215332 636.334106 2892.107422 636.517334 C 2891.999268 636.700439 2891.835938 637.03772 2891.744141 637.266846 C 2891.652588 637.495972 2891.538574 637.908569 2891.491211 638.183716 C 2891.443604 638.458984 2891.402832 639.085815 2891.400146 639.576782 C 2891.397461 640.067749 2891.428955 640.677124 2891.469971 640.93103 C 2891.510986 641.184937 2891.607666 641.604126 2891.685059 641.862427 C 2891.762451 642.12085 2891.936035 642.551147 2892.070801 642.818726 C 2892.205811 643.086304 2892.428223 643.458374 2892.564941 643.64563 C 2892.70166 643.832764 2892.998291 644.166504 2893.224121 644.387085 C 2893.449951 644.607788 2893.843506 644.928101 2894.099121 645.099121 C 2894.354492 645.27002 2894.793213 645.525146 2895.07373 645.666138 C 2895.354248 645.807129 2895.813232 646.003052 2896.093994 646.101563 C 2896.374512 646.199951 2896.901123 646.350952 2897.26416 646.437012 C 2897.627197 646.523071 2898.219238 646.634644 2898.579834 646.685059 C 2898.998779 646.74353 2899.703125 646.776978 2900.530273 646.777832 C 2901.242432 646.778442 2902.270752 646.818604 2902.81543 646.867065 C 2903.359863 646.915527 2904.143066 646.997803 2904.555664 647.049927 C 2904.968262 647.102051 2905.900146 647.263672 2906.626221 647.40918 C 2907.352295 647.554688 2908.421143 647.807861 2909.001465 647.971802 C 2909.581787 648.13562 2910.486328 648.422241 2911.011963 648.608643 C 2911.537354 648.794922 2912.291504 649.084351 2912.6875 649.251587 C 2913.08374 649.418945 2913.711914 649.698364 2914.083496 649.872681 C 2914.455322 650.046997 2915.089844 650.370972 2915.493896 650.592651 C 2915.897705 650.814453 2916.538818 651.183716 2916.918457 651.413452 C 2917.298096 651.643188 2917.905762 652.034424 2918.268799 652.282959 C 2918.631836 652.531372 2919.255859 652.985718 2919.655273 653.292603 C 2920.054932 653.599487 2920.665527 654.106689 2921.012207 654.4198 C 2921.358887 654.732788 2921.936279 655.329346 2922.295166 655.745239 C 2922.654053 656.161255 2923.183594 656.831787 2923.472168 657.235352 C 2923.760498 657.638794 2924.196777 658.306641 2924.44165 658.719238 C 2924.686523 659.131836 2925.082764 659.860962 2925.32251 660.3396 C 2925.562256 660.818115 2925.878174 661.493286 2926.024658 661.839844 C 2926.171387 662.186401 2926.408447 662.783569 2926.551758 663.166748 C 2926.695068 663.549927 2926.935303 664.259888 2927.085938 664.744507 C 2927.236328 665.229004 2927.455322 666.00061 2927.57251 666.459106 C 2927.689697 666.917603 2927.852295 667.598511 2927.933594 667.972046 C 2928.015137 668.345703 2928.126953 668.740234 2928.182129 668.848755 Z"/>
        </g>
        <g id="Regular-S">
            <path id="Shape" fill="#000000" fill-rule="evenodd" stroke="none" d="M 1430.52771 700.070923 C 1430.956787 700.097412 1432.253052 700.107666 1433.408325 700.093872 C 1434.563599 700.079956 1435.839722 700.042114 1436.244141 700.009766 C 1436.648438 699.977417 1437.391113 699.921387 1437.894409 699.885254 C 1438.397705 699.849121 1439.336182 699.767456 1439.979858 699.703613 C 1440.623413 699.639893 1441.595703 699.532471 1442.140259 699.465088 C 1442.684937 699.397705 1443.508545 699.287842 1443.970703 699.221069 C 1444.432739 699.154297 1445.202515 699.032593 1445.68103 698.950684 C 1446.159668 698.868774 1446.686279 698.77771 1446.851318 698.748413 C 1447.016357 698.718994 1447.569946 698.610352 1448.081543 698.506836 C 1448.593262 698.40332 1449.538452 698.186035 1450.182007 698.023804 C 1450.825684 697.861694 1451.730347 697.617554 1452.192505 697.481445 C 1452.654663 697.345215 1453.370239 697.113525 1453.782837 696.966553 C 1454.195435 696.819458 1454.803101 696.596436 1455.133179 696.470947 C 1455.463257 696.345337 1456.24646 696.091431 1456.873535 695.906616 C 1457.500732 695.721802 1458.553955 695.3927 1459.214111 695.175171 C 1459.874146 694.957642 1460.819458 694.636353 1461.314575 694.46106 C 1461.80957 694.285889 1462.619751 693.989014 1463.114868 693.80127 C 1463.609985 693.613647 1464.474243 693.275269 1465.035278 693.049438 C 1465.596436 692.823608 1466.528198 692.436279 1467.105835 692.188721 C 1467.683472 691.941284 1468.682617 691.49646 1469.326294 691.200317 C 1469.969971 690.904175 1471.023193 690.399292 1471.666748 690.078491 C 1472.310425 689.757568 1473.215088 689.291138 1473.677246 689.04187 C 1474.139282 688.792725 1474.895508 688.372803 1475.357666 688.108765 C 1475.819702 687.844727 1476.5354 687.424683 1476.947998 687.175293 C 1477.360596 686.925781 1478.022217 686.50708 1478.418335 686.244873 C 1478.814331 685.982544 1479.448975 685.549683 1479.828613 685.283081 C 1480.20813 685.016357 1480.802368 684.582642 1481.148926 684.319336 C 1481.495483 684.055908 1482.116577 683.570313 1482.529175 683.240234 C 1482.941772 682.910156 1483.643921 682.324951 1484.0896 681.939697 C 1484.535156 681.554443 1485.29126 680.875488 1485.769897 680.430908 C 1486.248535 679.986206 1487.114624 679.136963 1487.69458 678.543579 C 1488.274658 677.950195 1489.054688 677.115601 1489.428223 676.688843 C 1489.801758 676.262085 1490.380371 675.57251 1490.714233 675.15625 C 1491.047974 674.740112 1491.54187 674.091919 1491.811646 673.715942 C 1492.081299 673.339966 1492.480591 672.748779 1492.69873 672.402222 C 1492.916992 672.055664 1493.286743 671.387329 1493.520386 670.917236 C 1493.75415 670.447021 1494.022339 669.816772 1494.116455 669.516724 C 1494.210449 669.216675 1494.31604 668.762451 1494.350952 668.507324 C 1494.392334 668.205322 1494.395142 667.906738 1494.358887 667.651245 C 1494.328369 667.435547 1494.249512 667.153687 1494.183716 667.025024 C 1494.117798 666.89624 1493.961792 666.685913 1493.836792 666.557617 C 1493.711914 666.429199 1493.460571 666.255859 1493.27832 666.172485 C 1493.096191 666.089111 1492.783813 665.985718 1492.584229 665.942871 C 1492.384644 665.900024 1492.026978 665.864014 1491.789307 665.862915 C 1491.488037 665.86145 1491.210571 665.907104 1490.872314 666.013916 C 1490.605591 666.098267 1489.760254 666.486084 1488.993896 666.875977 C 1488.227417 667.265869 1486.776611 668.021973 1485.769897 668.556152 C 1484.763184 669.090332 1483.250854 669.871094 1482.40918 670.290894 C 1481.567505 670.710815 1480.365723 671.293579 1479.738525 671.58606 C 1479.11145 671.878418 1478.071655 672.345703 1477.428101 672.62439 C 1476.784424 672.903076 1475.785156 673.321655 1475.207642 673.554688 C 1474.630005 673.787598 1473.72522 674.140015 1473.197144 674.338013 C 1472.669067 674.535889 1471.818359 674.844482 1471.306763 675.023804 C 1470.795166 675.203125 1469.903931 675.499146 1469.326294 675.681519 C 1468.748657 675.863892 1467.816895 676.144775 1467.255859 676.305542 C 1466.694702 676.466431 1465.762939 676.71875 1465.185425 676.866089 C 1464.607788 677.01355 1463.541016 677.255493 1462.814819 677.403564 C 1462.088745 677.551758 1460.900391 677.769653 1460.174316 677.887817 C 1459.44812 678.006104 1458.21936 678.181274 1457.443604 678.277222 C 1456.667969 678.373047 1455.749756 678.47998 1455.403198 678.514771 C 1455.056641 678.549561 1454.475952 678.605713 1454.112915 678.639648 C 1453.749878 678.673462 1453.101685 678.728149 1452.672607 678.760986 C 1452.24353 678.793823 1451.446777 678.8479 1450.902222 678.881226 C 1450.357544 678.914429 1449.263916 678.97583 1448.47168 679.0177 C 1447.545776 679.066528 1445.295044 679.093628 1442.170288 679.093628 C 1439.054077 679.093628 1436.792236 679.066406 1435.868896 679.017822 C 1435.076782 678.976196 1434.036987 678.914551 1433.55835 678.881104 C 1433.079834 678.847534 1432.377686 678.792358 1431.998047 678.758423 C 1431.618408 678.724487 1430.970337 678.65625 1430.557739 678.606812 C 1430.145142 678.557251 1429.253906 678.408447 1428.577271 678.276123 C 1427.900635 678.143677 1426.860962 677.928223 1426.266846 677.797241 C 1425.672607 677.666382 1424.700439 677.437866 1424.106323 677.289673 C 1423.512207 677.141479 1422.729004 676.937622 1422.365967 676.836792 C 1422.002808 676.735962 1421.314209 676.535278 1420.835571 676.390991 C 1420.356934 676.246704 1419.641357 676.044434 1419.245239 675.941406 C 1418.849121 675.838379 1418.20105 675.714844 1417.804932 675.66687 C 1417.223755 675.596436 1416.957397 675.592651 1416.424561 675.647339 C 1416.061523 675.684692 1415.56189 675.779175 1415.314331 675.857544 C 1415.066772 675.935791 1414.688721 676.10144 1414.474243 676.225464 C 1414.249878 676.355103 1413.854492 676.681274 1413.543945 676.992676 C 1413.194458 677.343384 1412.905151 677.703613 1412.723999 678.014038 C 1412.570068 678.27771 1412.33606 678.765137 1412.203979 679.097046 C 1412.071899 679.428955 1411.881836 680.036621 1411.781494 680.447388 C 1411.681152 680.858154 1411.550537 681.585693 1411.491333 682.064331 C 1411.412598 682.699219 1411.383545 683.356567 1411.383545 684.494873 C 1411.383545 685.353027 1411.419067 686.40625 1411.462524 686.835449 C 1411.505981 687.264526 1411.593384 687.912598 1411.65686 688.275757 C 1411.720337 688.638794 1411.839233 689.205933 1411.921021 689.536011 C 1412.002808 689.866089 1412.148804 690.37915 1412.245483 690.67627 C 1412.342163 690.973267 1412.506104 691.429077 1412.609985 691.689087 C 1412.713745 691.949097 1412.930176 692.424927 1413.09082 692.74646 C 1413.251587 693.067993 1413.529541 693.557373 1413.708618 693.833984 C 1413.887573 694.110718 1414.196167 694.539551 1414.394165 694.787109 C 1414.592163 695.034668 1415.000244 695.470825 1415.301147 695.75647 C 1415.602051 696.041992 1416.098145 696.442749 1416.403687 696.647095 C 1416.709106 696.85144 1417.189941 697.134033 1417.472046 697.275024 C 1417.75415 697.416016 1418.295532 697.653687 1418.675171 697.803223 C 1419.054688 697.952637 1419.756836 698.198364 1420.235474 698.349243 C 1420.714111 698.5 1421.483765 698.717041 1421.945801 698.831665 C 1422.407959 698.946167 1423.20459 699.121094 1423.716187 699.220215 C 1424.227783 699.319458 1425.092041 699.467041 1425.636597 699.548096 C 1426.181274 699.629272 1426.856445 699.725586 1427.136963 699.762085 C 1427.41748 699.798584 1428.119751 699.872192 1428.697266 699.925659 C 1429.274902 699.979126 1430.098633 700.044556 1430.52771 700.070923 Z M 1469.926392 670.425659 C 1470.10791 670.451538 1470.526489 670.459351 1470.856567 670.443115 C 1471.186646 670.42688 1471.672852 670.36084 1471.93689 670.296387 C 1472.200928 670.231934 1472.687012 670.046387 1473.01709 669.883789 C 1473.383057 669.703735 1473.791626 669.440674 1474.063965 669.209961 C 1474.309814 669.001709 1474.695801 668.588379 1474.921753 668.29126 C 1475.147827 667.994263 1475.478516 667.454102 1475.656738 667.091064 C 1475.834961 666.727905 1476.074097 666.120361 1476.18811 665.740723 C 1476.302124 665.361206 1476.450806 664.766968 1476.518677 664.42041 C 1476.586426 664.073853 1476.686279 663.425781 1476.740601 662.980103 C 1476.795044 662.534546 1476.902222 661.818848 1476.979004 661.389771 C 1477.055664 660.960693 1477.191162 660.259399 1477.280029 659.831299 C 1477.368896 659.403198 1477.557251 658.56604 1477.698608 657.970825 C 1477.839966 657.375732 1478.118774 656.25415 1478.318115 655.478516 C 1478.517334 654.702759 1478.855225 653.433472 1479.068848 652.657837 C 1479.282471 651.882202 1479.678101 650.477905 1479.947998 649.537109 C 1480.217896 648.596436 1480.641357 647.151611 1480.889038 646.326416 C 1481.136719 645.501221 1481.54126 644.177979 1481.788086 643.385864 C 1482.03479 642.593628 1482.440918 641.324341 1482.690674 640.565186 C 1482.94043 639.80603 1483.333862 638.71228 1483.564941 638.134644 C 1483.796021 637.557007 1484.1604 636.625366 1484.374634 636.064209 C 1484.588867 635.503052 1484.857056 634.787354 1484.970581 634.473877 C 1485.084229 634.160278 1485.285034 633.59314 1485.41687 633.213623 C 1485.548706 632.833984 1485.791016 632.108887 1485.9552 631.602295 C 1486.119507 631.095703 1486.361938 630.299072 1486.493896 629.831909 C 1486.625977 629.364746 1486.787964 628.717773 1486.853882 628.394043 C 1486.919922 628.070435 1486.990234 627.555054 1487.010376 627.249023 C 1487.032104 626.918091 1487.01709 626.488037 1486.973267 626.188599 C 1486.932739 625.911499 1486.835205 625.481567 1486.756348 625.233276 C 1486.677612 624.984863 1486.51123 624.606201 1486.386597 624.391602 C 1486.256836 624.168335 1485.927856 623.77063 1485.617188 623.461426 C 1485.301758 623.147583 1484.899536 622.818848 1484.656982 622.67688 C 1484.427368 622.54248 1483.9729 622.318604 1483.646973 622.179443 C 1483.321167 622.040283 1482.697388 621.835571 1482.260986 621.724731 C 1481.824585 621.61377 1481.105469 621.473145 1480.663086 621.411987 C 1480.220581 621.350952 1479.520752 621.287231 1479.108398 621.302246 C 1478.489258 621.324829 1478.32373 621.348145 1477.796509 621.498413 C 1477.481934 621.588013 1476.918457 621.85437 1476.532104 622.051392 C 1476.145752 622.248413 1475.43689 622.632446 1474.99353 622.957642 C 1474.540771 623.289795 1473.763794 624.118652 1473.467163 624.571655 C 1473.248413 624.905762 1472.89563 625.639893 1472.696411 626.102051 C 1472.497192 626.564087 1472.194214 627.306763 1472.023193 627.752319 C 1471.852051 628.197998 1471.632324 628.778564 1471.53479 629.042603 C 1471.437378 629.306763 1471.196899 629.981812 1471.000366 630.542969 C 1470.803955 631.104126 1470.525269 631.914307 1470.381226 632.343384 C 1470.237183 632.772461 1469.997681 633.501587 1469.849121 633.963745 C 1469.700562 634.425781 1469.468384 635.195557 1469.333252 635.674072 C 1469.19812 636.15271 1468.860229 637.462524 1468.58252 638.584717 C 1468.304688 639.707031 1467.926758 641.300293 1467.742676 642.125488 C 1467.558594 642.950684 1467.299316 644.152466 1467.166382 644.796143 C 1467.033569 645.439697 1466.81543 646.560547 1466.681641 647.286621 C 1466.547852 648.012817 1466.361328 649.06604 1466.267212 649.627197 C 1466.173218 650.188354 1466.038086 651.03894 1465.967041 651.517578 C 1465.895996 651.996216 1465.78479 652.792847 1465.719971 653.287964 C 1465.655029 653.783081 1465.574951 654.444702 1465.541992 654.758301 C 1465.509033 655.071899 1465.443726 655.719971 1465.396973 656.198608 C 1465.35022 656.677246 1465.277466 657.581909 1465.235352 658.209106 C 1465.193237 658.836182 1465.158447 660.119019 1465.157959 661.059692 C 1465.157471 662.000366 1465.192139 663.175171 1465.234985 663.670288 C 1465.277832 664.165405 1465.379639 664.980713 1465.461182 665.481934 C 1465.542725 665.983276 1465.663452 666.599609 1465.72937 666.85144 C 1465.79541 667.103271 1465.919189 667.483765 1466.004395 667.696777 C 1466.089722 667.909912 1466.264038 668.245972 1466.391846 668.443604 C 1466.519531 668.641235 1466.745605 668.924438 1466.894165 669.072998 C 1467.042725 669.221558 1467.329468 669.449951 1467.531494 669.580444 C 1467.733398 669.71106 1468.113525 669.900635 1468.376221 670.001953 C 1468.638916 670.103271 1469.020874 670.229492 1469.225098 670.282349 C 1469.429321 670.335327 1469.744873 670.39978 1469.926392 670.425659 Z M 1445.182129 668.848755 C 1445.25061 668.983643 1445.312256 669.035278 1445.376709 669.012085 C 1445.428589 668.993286 1445.518066 668.921997 1445.575684 668.853516 C 1445.633179 668.785034 1445.748291 668.509033 1445.831299 668.240112 C 1445.914307 667.971191 1446.075073 667.319092 1446.188599 666.791016 C 1446.302124 666.262817 1446.46106 665.412109 1446.541748 664.900513 C 1446.622559 664.388916 1446.718384 663.727295 1446.754639 663.430176 C 1446.791016 663.133179 1446.847046 662.647095 1446.87915 662.349976 C 1446.911255 662.052979 1446.970947 661.364624 1447.011841 660.820435 C 1447.052856 660.276245 1447.084961 658.955078 1447.083374 657.884521 C 1447.081787 656.813965 1447.046753 655.517334 1447.005615 655.003174 C 1446.964355 654.488892 1446.878296 653.649536 1446.814453 653.137939 C 1446.750488 652.626343 1446.642212 651.883667 1446.573608 651.487549 C 1446.505127 651.091553 1446.37085 650.416382 1446.275024 649.987305 C 1446.179321 649.558105 1445.990356 648.815552 1445.855225 648.336914 C 1445.720093 647.858276 1445.487549 647.12915 1445.338623 646.716553 C 1445.189697 646.303955 1444.949463 645.688843 1444.80481 645.349731 C 1444.660156 645.010498 1444.376953 644.402954 1444.175415 643.99939 C 1443.973877 643.595947 1443.659302 643.009277 1443.476318 642.695679 C 1443.293335 642.38208 1442.940063 641.828491 1442.691162 641.465332 C 1442.442383 641.102295 1442.031128 640.548706 1441.777466 640.235107 C 1441.523682 639.921509 1441.143799 639.475098 1440.933105 639.243164 C 1440.72229 639.011108 1440.262817 638.549683 1439.911743 638.217773 C 1439.560791 637.885864 1439.007202 637.400391 1438.681519 637.138916 C 1438.355835 636.877441 1437.765381 636.44458 1437.369263 636.17688 C 1436.973145 635.909302 1436.324951 635.50647 1435.928955 635.28186 C 1435.532837 635.057129 1434.898193 634.726929 1434.518555 634.547974 C 1434.139038 634.368896 1433.55835 634.114136 1433.228271 633.981689 C 1432.898193 633.849243 1432.371582 633.651367 1432.058105 633.541992 C 1431.744507 633.432617 1431.150391 633.244751 1430.737793 633.124512 C 1430.325195 633.004272 1429.717529 632.842285 1429.387451 632.764526 C 1429.057373 632.686768 1428.517334 632.568848 1428.187256 632.502319 C 1427.857178 632.435791 1427.317017 632.338745 1426.986938 632.286743 C 1426.65686 632.234619 1426.076294 632.153687 1425.696655 632.106812 C 1425.317017 632.059937 1424.668945 631.99231 1424.256348 631.956665 C 1423.84375 631.921021 1423.059814 631.865112 1422.514404 631.83252 C 1421.968872 631.799927 1421.233521 631.773193 1420.880249 631.773193 C 1420.526978 631.773193 1419.825562 631.799927 1419.321533 631.832397 C 1418.817505 631.86499 1418.148438 631.921387 1417.834961 631.957642 C 1417.521362 631.994019 1417.024292 632.063477 1416.730347 632.112061 C 1416.436279 632.160522 1415.917114 632.266113 1415.576416 632.34668 C 1415.235718 632.427124 1414.702637 632.574463 1414.391846 632.674072 C 1414.081055 632.77356 1413.628174 632.93689 1413.385254 633.036987 C 1413.142456 633.137085 1412.727783 633.328125 1412.463745 633.46167 C 1412.199707 633.595093 1411.796021 633.829102 1411.566528 633.981689 C 1411.337158 634.134155 1410.999512 634.384399 1410.816284 634.537598 C 1410.633179 634.690796 1410.312378 634.992188 1410.103394 635.207153 C 1409.894409 635.422241 1409.629028 635.72998 1409.513672 635.891235 C 1409.398193 636.052368 1409.215332 636.334106 1409.1073 636.517334 C 1408.999268 636.700439 1408.835815 637.03772 1408.744141 637.266846 C 1408.652588 637.495972 1408.538696 637.908569 1408.491211 638.183716 C 1408.443726 638.458984 1408.40271 639.085815 1408.400146 639.576782 C 1408.397583 640.067749 1408.428955 640.677124 1408.469971 640.93103 C 1408.510864 641.184937 1408.607666 641.604126 1408.685059 641.862427 C 1408.762329 642.12085 1408.936035 642.551147 1409.070923 642.818726 C 1409.205811 643.086304 1409.428101 643.458374 1409.564941 643.64563 C 1409.701782 643.832764 1409.998413 644.166504 1410.224121 644.387085 C 1410.449829 644.607788 1410.843628 644.928101 1411.098999 645.099121 C 1411.354492 645.27002 1411.793091 645.525146 1412.073608 645.666138 C 1412.354248 645.807129 1412.813354 646.003052 1413.093872 646.101563 C 1413.37439 646.199951 1413.901001 646.350952 1414.26416 646.437012 C 1414.627197 646.523071 1415.21936 646.634644 1415.579834 646.685059 C 1415.998779 646.74353 1416.703003 646.776978 1417.530273 646.777832 C 1418.242432 646.778442 1419.270752 646.818604 1419.815308 646.867065 C 1420.359985 646.915527 1421.143188 646.997803 1421.555786 647.049927 C 1421.968384 647.102051 1422.900024 647.263672 1423.626221 647.40918 C 1424.352417 647.554688 1425.421265 647.807861 1426.001465 647.971802 C 1426.581787 648.13562 1427.48645 648.422241 1428.011963 648.608643 C 1428.537476 648.794922 1429.291504 649.084351 1429.6875 649.251587 C 1430.083618 649.418945 1430.711792 649.698364 1431.083496 649.872681 C 1431.4552 650.046997 1432.089844 650.370972 1432.493896 650.592651 C 1432.897827 650.814453 1433.53894 651.183716 1433.918457 651.413452 C 1434.298096 651.643188 1434.90564 652.034424 1435.268799 652.282959 C 1435.631836 652.531372 1436.255859 652.985718 1436.655396 653.292603 C 1437.054932 653.599487 1437.665527 654.106689 1438.012207 654.4198 C 1438.359009 654.732788 1438.936279 655.329346 1439.295166 655.745239 C 1439.654053 656.161255 1440.183716 656.831787 1440.472168 657.235352 C 1440.76062 657.638794 1441.196899 658.306641 1441.44165 658.719238 C 1441.686401 659.131836 1442.082886 659.860962 1442.32251 660.3396 C 1442.562256 660.818115 1442.878296 661.493286 1443.02478 661.839844 C 1443.171265 662.186401 1443.408447 662.783569 1443.551758 663.166748 C 1443.695068 663.549927 1443.935303 664.259888 1444.085815 664.744507 C 1444.236328 665.229004 1444.455322 666.00061 1444.57251 666.459106 C 1444.689697 666.917603 1444.852173 667.598511 1444.933716 667.972046 C 1445.015137 668.345703 1445.126953 668.740234 1445.182129 668.848755 Z"/>
        </g>
        <g id="Ultralight-S">
            <path id="path12" fill="#000000" fill-rule="evenodd" stroke="none" d="M 539.627747 700.070923 C 540.056824 700.097412 541.353088 700.107666 542.508362 700.093872 C 543.663635 700.079956 544.939697 700.042114 545.344055 700.009766 C 545.748474 699.977417 546.49115 699.921387 546.994446 699.885254 C 547.497742 699.849121 548.436157 699.767456 549.079834 699.703613 C 549.72345 699.639893 550.695679 699.532471 551.240295 699.465088 C 551.784912 699.397705 552.608582 699.287842 553.070679 699.221069 C 553.532776 699.154297 554.30249 699.032593 554.781067 698.950684 C 555.259644 698.868774 555.786316 698.77771 555.951355 698.748413 C 556.116333 698.718994 556.669983 698.610352 557.18158 698.506836 C 557.693237 698.40332 558.638428 698.186035 559.282043 698.023804 C 559.92572 697.861694 560.830383 697.617554 561.29248 697.481445 C 561.754578 697.345215 562.470276 697.113525 562.882874 696.966553 C 563.295471 696.819458 563.903076 696.596436 564.233154 696.470947 C 564.563232 696.345337 565.346375 696.091431 565.973511 695.906616 C 566.600647 695.721802 567.653931 695.3927 568.314026 695.175171 C 568.974182 694.957642 569.919434 694.636353 570.41449 694.46106 C 570.909607 694.285889 571.719788 693.989014 572.214905 693.80127 C 572.710022 693.613647 573.574219 693.275269 574.135315 693.049438 C 574.696472 692.823608 575.628174 692.436279 576.205811 692.188721 C 576.783447 691.941284 577.782654 691.49646 578.42627 691.200317 C 579.069946 690.904175 580.123169 690.399292 580.766785 690.078491 C 581.410461 689.757568 582.315125 689.291138 582.777222 689.04187 C 583.239319 688.792725 583.995544 688.372803 584.457642 688.108765 C 584.919739 687.844727 585.635376 687.424683 586.047974 687.175293 C 586.460571 686.925781 587.122192 686.50708 587.518311 686.244873 C 587.914368 685.982544 588.549011 685.549683 588.928589 685.283081 C 589.308167 685.016357 589.902344 684.582642 590.248901 684.319336 C 590.595459 684.055908 591.216614 683.570313 591.629211 683.240234 C 592.041809 682.910156 592.743958 682.324951 593.189514 681.939697 C 593.635132 681.554443 594.391296 680.875488 594.869934 680.430908 C 595.348511 679.986206 596.214661 679.136963 596.794617 678.543579 C 597.374634 677.950195 598.154724 677.115601 598.528198 676.688843 C 598.901733 676.262085 599.480408 675.57251 599.814209 675.15625 C 600.14801 674.740112 600.641846 674.091919 600.911621 673.715942 C 601.181335 673.339966 601.580566 672.748779 601.798767 672.402222 C 602.016968 672.055664 602.386719 671.387329 602.620422 670.917236 C 602.854126 670.447021 603.122314 669.816772 603.216431 669.516724 C 603.310486 669.216675 603.416077 668.762451 603.450989 668.507324 C 603.49231 668.205322 603.495117 667.906738 603.458923 667.651245 C 603.428406 667.435547 603.349487 667.153687 603.283691 667.025024 C 603.217834 666.89624 603.061768 666.685913 602.936829 666.557617 C 602.811829 666.429199 602.560547 666.255859 602.378357 666.172485 C 602.196167 666.089111 601.883789 665.985718 601.684204 665.942871 C 601.484619 665.900024 601.126953 665.864014 600.889343 665.862915 C 600.588013 665.86145 600.310608 665.907104 599.972351 666.013916 C 599.705627 666.098267 598.860291 666.486084 598.093872 666.875977 C 597.327393 667.265869 595.876648 668.021973 594.869934 668.556152 C 593.863159 669.090332 592.35083 669.871094 591.509155 670.290894 C 590.66748 670.710815 589.465698 671.293579 588.838562 671.58606 C 588.211426 671.878418 587.171692 672.345703 586.528076 672.62439 C 585.88446 672.903076 584.885193 673.321655 584.307556 673.554688 C 583.72998 673.787598 582.825256 674.140015 582.297119 674.338013 C 581.769043 674.535889 580.918335 674.844482 580.406738 675.023804 C 579.895081 675.203125 579.003906 675.499146 578.42627 675.681519 C 577.848633 675.863892 576.916931 676.144775 576.355835 676.305542 C 575.794678 676.466431 574.862976 676.71875 574.2854 676.866089 C 573.707764 677.01355 572.640991 677.255493 571.914856 677.403564 C 571.18866 677.551758 570.000427 677.769653 569.274292 677.887817 C 568.548096 678.006104 567.319336 678.181274 566.54364 678.277222 C 565.768005 678.373047 564.849792 678.47998 564.503235 678.514771 C 564.156616 678.549561 563.575989 678.605713 563.212952 678.639648 C 562.849854 678.673462 562.201721 678.728149 561.772583 678.760986 C 561.343506 678.793823 560.546814 678.8479 560.002197 678.881226 C 559.457581 678.914429 558.363831 678.97583 557.571655 679.0177 C 556.645813 679.066528 554.395081 679.093628 551.270325 679.093628 C 548.154114 679.093628 545.892212 679.066406 544.968933 679.017822 C 544.176758 678.976196 543.137024 678.914551 542.658386 678.881104 C 542.17981 678.847534 541.477661 678.792358 541.098022 678.758423 C 540.718445 678.724487 540.070313 678.65625 539.657715 678.606812 C 539.245117 678.557251 538.353943 678.408447 537.677307 678.276123 C 537.000671 678.143677 535.960938 677.928223 535.36676 677.797241 C 534.772644 677.666382 533.800415 677.437866 533.206299 677.289673 C 532.612183 677.141479 531.828979 676.937622 531.465942 676.836792 C 531.102844 676.735962 530.414185 676.535278 529.935608 676.390991 C 529.45697 676.246704 528.741333 676.044434 528.345215 675.941406 C 527.949158 675.838379 527.301025 675.714844 526.904907 675.66687 C 526.32373 675.596436 526.057373 675.592651 525.524597 675.647339 C 525.16156 675.684692 524.661926 675.779175 524.414368 675.857544 C 524.166809 675.935791 523.788757 676.10144 523.574158 676.225464 C 523.349915 676.355103 522.954468 676.681274 522.643982 676.992676 C 522.294434 677.343384 522.005127 677.703613 521.823975 678.014038 C 521.670044 678.27771 521.436035 678.765137 521.304016 679.097046 C 521.171936 679.428955 520.98175 680.036621 520.88147 680.447388 C 520.781189 680.858154 520.650574 681.585693 520.591309 682.064331 C 520.512634 682.699219 520.483521 683.356567 520.483521 684.494873 C 520.483521 685.353027 520.519043 686.40625 520.5625 686.835449 C 520.605957 687.264526 520.69342 687.912598 520.756897 688.275757 C 520.820374 688.638794 520.939209 689.205933 521.020996 689.536011 C 521.102783 689.866089 521.248779 690.37915 521.345459 690.67627 C 521.442139 690.973267 521.60614 691.429077 521.7099 691.689087 C 521.813721 691.949097 522.030151 692.424927 522.190857 692.74646 C 522.351563 693.067993 522.629517 693.557373 522.808594 693.833984 C 522.98761 694.110718 523.296143 694.539551 523.494141 694.787109 C 523.692139 695.034668 524.100281 695.470825 524.401184 695.75647 C 524.702026 696.041992 525.19812 696.442749 525.503601 696.647095 C 525.809143 696.85144 526.289917 697.134033 526.572021 697.275024 C 526.854126 697.416016 527.395508 697.653687 527.775085 697.803223 C 528.154724 697.952637 528.856873 698.198364 529.335449 698.349243 C 529.814087 698.5 530.58374 698.717041 531.045837 698.831665 C 531.507935 698.946167 532.304626 699.121094 532.816223 699.220215 C 533.32782 699.319458 534.192017 699.467041 534.736633 699.548096 C 535.28125 699.629272 535.956421 699.725586 536.237 699.762085 C 536.517517 699.798584 537.219666 699.872192 537.797302 699.925659 C 538.374939 699.979126 539.198608 700.044556 539.627747 700.070923 Z M 579.026428 670.425659 C 579.207947 670.451538 579.626526 670.459351 579.956604 670.443115 C 580.286682 670.42688 580.772827 670.36084 581.036865 670.296387 C 581.300903 670.231934 581.787048 670.046387 582.117126 669.883789 C 582.483032 669.703735 582.891602 669.440674 583.164001 669.209961 C 583.40979 669.001709 583.795776 668.588379 584.02179 668.29126 C 584.247803 667.994263 584.578552 667.454102 584.756714 667.091064 C 584.934937 666.727905 585.174072 666.120361 585.288086 665.740723 C 585.4021 665.361206 585.550842 664.766968 585.618652 664.42041 C 585.686401 664.073853 585.786316 663.425781 585.840637 662.980103 C 585.894958 662.534546 586.002258 661.818848 586.078979 661.389771 C 586.155701 660.960693 586.291199 660.259399 586.380005 659.831299 C 586.468872 659.403198 586.657227 658.56604 586.798584 657.970825 C 586.940002 657.375732 587.21875 656.25415 587.418091 655.478516 C 587.617371 654.702759 587.955261 653.433472 588.168884 652.657837 C 588.382507 651.882202 588.778076 650.477905 589.047974 649.537109 C 589.317871 648.596436 589.741333 647.151611 589.989014 646.326416 C 590.236755 645.501221 590.641296 644.177979 590.888062 643.385864 C 591.134766 642.593628 591.540955 641.324341 591.79071 640.565186 C 592.040405 639.80603 592.433838 638.71228 592.664978 638.134644 C 592.896057 637.557007 593.260437 636.625366 593.474609 636.064209 C 593.688843 635.503052 593.957031 634.787354 594.070618 634.473877 C 594.184143 634.160278 594.38501 633.59314 594.516846 633.213623 C 594.648743 632.833984 594.890991 632.108887 595.055237 631.602295 C 595.219482 631.095703 595.461914 630.299072 595.593933 629.831909 C 595.725952 629.364746 595.887939 628.717773 595.953918 628.394043 C 596.019836 628.070435 596.090271 627.555054 596.110413 627.249023 C 596.132141 626.918091 596.117065 626.488037 596.073303 626.188599 C 596.032776 625.911499 595.935181 625.481567 595.856384 625.233276 C 595.777588 624.984863 595.611206 624.606201 595.486572 624.391602 C 595.356873 624.168335 595.027893 623.77063 594.717163 623.461426 C 594.401794 623.147583 593.999451 622.818848 593.756958 622.67688 C 593.527405 622.54248 593.072937 622.318604 592.747009 622.179443 C 592.421143 622.040283 591.797424 621.835571 591.360962 621.724731 C 590.924561 621.61377 590.205505 621.473145 589.763062 621.411987 C 589.320618 621.350952 588.620789 621.287231 588.208435 621.302246 C 587.589233 621.324829 587.423767 621.348145 586.896423 621.498413 C 586.581909 621.588013 586.018494 621.85437 585.632141 622.051392 C 585.245789 622.248413 584.536865 622.632446 584.093506 622.957642 C 583.640808 623.289795 582.863831 624.118652 582.5672 624.571655 C 582.34845 624.905762 581.995605 625.639893 581.796387 626.102051 C 581.597229 626.564087 581.29425 627.306763 581.123169 627.752319 C 580.952026 628.197998 580.7323 628.778564 580.634827 629.042603 C 580.537354 629.306763 580.296814 629.981812 580.100403 630.542969 C 579.903931 631.104126 579.625305 631.914307 579.481201 632.343384 C 579.337158 632.772461 579.097717 633.501587 578.949097 633.963745 C 578.800537 634.425781 578.568359 635.195557 578.433228 635.674072 C 578.298096 636.15271 577.960266 637.462524 577.682495 638.584717 C 577.404663 639.707031 577.026794 641.300293 576.842651 642.125488 C 576.658569 642.950684 576.399292 644.152466 576.266418 644.796143 C 576.133545 645.439697 575.915405 646.560547 575.781616 647.286621 C 575.647827 648.012817 575.461365 649.06604 575.367249 649.627197 C 575.273132 650.188354 575.138062 651.03894 575.067017 651.517578 C 574.995972 651.996216 574.884827 652.792847 574.819946 653.287964 C 574.755066 653.783081 574.674988 654.444702 574.641968 654.758301 C 574.608948 655.071899 574.543701 655.719971 574.496948 656.198608 C 574.450195 656.677246 574.377502 657.581909 574.335388 658.209106 C 574.293213 658.836182 574.258423 660.119019 574.257935 661.059692 C 574.257507 662.000366 574.292175 663.175171 574.335022 663.670288 C 574.377869 664.165405 574.479614 664.980713 574.561157 665.481934 C 574.642761 665.983276 574.763428 666.599609 574.829407 666.85144 C 574.895386 667.103271 575.019104 667.483765 575.104431 667.696777 C 575.189758 667.909912 575.364075 668.245972 575.491821 668.443604 C 575.619568 668.641235 575.845642 668.924438 575.994141 669.072998 C 576.1427 669.221558 576.429504 669.449951 576.63147 669.580444 C 576.833435 669.71106 577.213562 669.900635 577.476257 670.001953 C 577.738892 670.103271 578.120911 670.229492 578.325073 670.282349 C 578.529297 670.335327 578.844849 670.39978 579.026428 670.425659 Z M 554.282104 668.848755 C 554.350586 668.983643 554.412231 669.035278 554.476685 669.012085 C 554.528564 668.993286 554.618103 668.921997 554.675659 668.853516 C 554.733215 668.785034 554.848267 668.509033 554.931274 668.240112 C 555.014343 667.971191 555.17511 667.319092 555.288635 666.791016 C 555.4021 666.262817 555.561035 665.412109 555.641785 664.900513 C 555.722534 664.388916 555.818298 663.727295 555.854675 663.430176 C 555.891052 663.133179 555.947083 662.647095 555.979126 662.349976 C 556.01123 662.052979 556.070923 661.364624 556.111877 660.820435 C 556.152832 660.276245 556.184998 658.955078 556.183411 657.884521 C 556.181763 656.813965 556.14679 655.517334 556.105591 655.003174 C 556.064331 654.488892 555.978333 653.649536 555.914429 653.137939 C 555.850525 652.626343 555.742188 651.883667 555.673645 651.487549 C 555.605164 651.091553 555.470764 650.416382 555.375061 649.987305 C 555.279297 649.558105 555.090393 648.815552 554.9552 648.336914 C 554.820007 647.858276 554.587585 647.12915 554.438599 646.716553 C 554.289673 646.303955 554.049438 645.688843 553.904785 645.349731 C 553.760132 645.010498 553.476929 644.402954 553.275391 643.99939 C 553.073853 643.595947 552.759277 643.009277 552.576294 642.695679 C 552.393311 642.38208 552.040039 641.828491 551.791199 641.465332 C 551.542358 641.102295 551.131165 640.548706 550.877441 640.235107 C 550.623718 639.921509 550.243774 639.475098 550.03302 639.243164 C 549.822327 639.011108 549.362793 638.549683 549.01178 638.217773 C 548.660828 637.885864 548.107178 637.400391 547.781494 637.138916 C 547.455872 636.877441 546.865295 636.44458 546.469238 636.17688 C 546.07312 635.909302 545.424988 635.50647 545.028931 635.28186 C 544.632813 635.057129 543.998169 634.726929 543.618591 634.547974 C 543.239014 634.368896 542.658386 634.114136 542.328308 633.981689 C 541.99823 633.849243 541.471619 633.651367 541.158081 633.541992 C 540.844482 633.432617 540.250366 633.244751 539.837769 633.124512 C 539.425171 633.004272 538.817566 632.842285 538.487488 632.764526 C 538.15741 632.686768 537.61731 632.568848 537.287231 632.502319 C 536.957153 632.435791 536.416992 632.338745 536.086975 632.286743 C 535.756897 632.234619 535.17627 632.153687 534.796692 632.106812 C 534.417053 632.059937 533.768921 631.99231 533.356323 631.956665 C 532.943726 631.921021 532.159851 631.865112 531.61438 631.83252 C 531.068848 631.799927 530.333496 631.773193 529.980225 631.773193 C 529.626953 631.773193 528.925537 631.799927 528.421509 631.832397 C 527.917419 631.86499 527.248474 631.921387 526.934937 631.957642 C 526.621338 631.994019 526.124268 632.063477 525.830322 632.112061 C 525.536316 632.160522 525.01709 632.266113 524.676392 632.34668 C 524.335693 632.427124 523.802673 632.574463 523.491882 632.674072 C 523.181091 632.77356 522.728088 632.93689 522.485291 633.036987 C 522.242493 633.137085 521.82782 633.328125 521.563782 633.46167 C 521.299744 633.595093 520.895996 633.829102 520.666565 633.981689 C 520.437073 634.134155 520.099487 634.384399 519.916321 634.537598 C 519.733154 634.690796 519.412354 634.992188 519.203369 635.207153 C 518.994385 635.422241 518.729004 635.72998 518.613647 635.891235 C 518.49823 636.052368 518.315369 636.334106 518.207336 636.517334 C 518.099243 636.700439 517.935791 637.03772 517.844177 637.266846 C 517.752502 637.495972 517.638672 637.908569 517.591187 638.183716 C 517.543701 638.458984 517.502747 639.085815 517.500122 639.576782 C 517.497559 640.067749 517.528992 640.677124 517.569946 640.93103 C 517.610901 641.184937 517.707642 641.604126 517.784973 641.862427 C 517.862366 642.12085 518.036011 642.551147 518.170898 642.818726 C 518.305847 643.086304 518.528137 643.458374 518.664917 643.64563 C 518.801758 643.832764 519.098389 644.166504 519.324097 644.387085 C 519.549866 644.607788 519.943604 644.928101 520.199036 645.099121 C 520.454529 645.27002 520.893066 645.525146 521.173645 645.666138 C 521.454224 645.807129 521.91333 646.003052 522.193909 646.101563 C 522.474426 646.199951 523.001038 646.350952 523.364136 646.437012 C 523.727234 646.523071 524.319275 646.634644 524.679871 646.685059 C 525.098755 646.74353 525.80304 646.776978 526.63031 646.777832 C 527.342468 646.778442 528.370728 646.818604 528.915344 646.867065 C 529.459961 646.915527 530.243164 646.997803 530.655762 647.049927 C 531.068359 647.102051 532.000061 647.263672 532.726196 647.40918 C 533.452393 647.554688 534.52124 647.807861 535.101501 647.971802 C 535.681702 648.13562 536.586426 648.422241 537.111938 648.608643 C 537.637451 648.794922 538.391479 649.084351 538.787537 649.251587 C 539.183655 649.418945 539.811829 649.698364 540.183533 649.872681 C 540.555237 650.046997 541.18988 650.370972 541.593872 650.592651 C 541.997803 650.814453 542.638916 651.183716 543.018494 651.413452 C 543.398071 651.643188 544.005676 652.034424 544.368774 652.282959 C 544.731873 652.531372 545.355835 652.985718 545.755371 653.292603 C 546.154907 653.599487 546.765503 654.106689 547.112244 654.4198 C 547.458984 654.732788 548.036316 655.329346 548.395203 655.745239 C 548.754089 656.161255 549.283691 656.831787 549.572144 657.235352 C 549.860596 657.638794 550.296875 658.306641 550.541626 658.719238 C 550.786438 659.131836 551.182861 659.860962 551.422546 660.3396 C 551.662292 660.818115 551.978271 661.493286 552.124756 661.839844 C 552.271301 662.186401 552.508423 662.783569 552.651733 663.166748 C 552.795044 663.549927 553.035339 664.259888 553.185791 664.744507 C 553.336243 665.229004 553.555237 666.00061 553.672485 666.459106 C 553.789673 666.917603 553.952209 667.598511 554.033691 667.972046 C 554.115173 668.345703 554.226929 668.740234 554.282104 668.848755 Z"/>
        </g>
    </g>
</svg>
