<?xml version="1.0" encoding="UTF-8"?>
<!-- Generated by Pixelmator Pro 3.6.15 -->
<svg width="545" height="306" viewBox="0 0 545 306" xmlns="http://www.w3.org/2000/svg">
    <linearGradient id="linearGradient1" x1="450" y1="243" x2="545" y2="243" gradientUnits="userSpaceOnUse">
        <stop offset="0" stop-color="#828282" stop-opacity="1"/>
        <stop offset="1" stop-color="#000000" stop-opacity="0"/>
    </linearGradient>
    <path id="Rounded-Rectangle-copy-3" fill="url(#linearGradient1)" fill-rule="evenodd" stroke="none" d="M 450 286.200012 C 450 293.487579 450 297.131348 451.53006 299.863464 C 452.611389 301.794342 454.205658 303.388611 456.136536 304.46994 C 458.868652 306 462.512421 306 469.799988 306 L 525.200012 306 C 532.487549 306 536.131348 306 538.863464 304.46994 C 540.794312 303.388611 542.388611 301.794342 543.469971 299.863464 C 545 297.131348 545 293.487579 545 286.200012 L 545 199.800003 C 545 192.512421 545 188.868652 543.469971 186.136551 C 542.388611 184.205658 540.794373 182.611404 538.863464 181.53006 C 536.131348 180 532.487549 180 525.200012 180 L 469.799988 180 C 462.512421 180 458.868652 180 456.136536 181.530045 C 454.205658 182.611389 452.611389 184.205658 451.53006 186.136536 C 450 188.868637 450 192.512421 450 199.799988 Z"/>
    <path id="Rounded-Rectangle-copy-4" fill="#828282" fill-rule="evenodd" stroke="none" d="M 337 286.200012 C 337 293.487579 337 297.131348 338.53006 299.863464 C 339.611389 301.794342 341.205658 303.388611 343.136536 304.46994 C 345.868652 306 349.512421 306 356.799988 306 L 412.200012 306 C 419.487579 306 423.131348 306 425.863464 304.46994 C 427.794342 303.388611 429.388611 301.794342 430.46994 299.863464 C 432 297.131348 432 293.487579 432 286.200012 L 432 199.800003 C 432 192.512421 432 188.868652 430.469971 186.136551 C 429.388611 184.205658 427.794342 182.611404 425.863464 181.53006 C 423.131348 180 419.487579 180 412.200012 180 L 356.799988 180 C 349.512421 180 345.868652 180 343.136536 181.530045 C 341.205658 182.611389 339.611389 184.205658 338.53006 186.136536 C 337 188.868637 337 192.512421 337 199.799988 Z"/>
    <path id="Rounded-Rectangle-copy-29" fill="#828282" fill-rule="evenodd" stroke="none" d="M 112 286.200012 C 112 293.487579 112 297.131348 113.530045 299.863464 C 114.611397 301.794342 116.20565 303.388611 118.136543 304.46994 C 120.868645 306 124.512428 306 131.800003 306 L 187.199997 306 C 194.487579 306 198.131348 306 200.863449 304.46994 C 202.794342 303.388611 204.388596 301.794342 205.46994 299.863464 C 207 297.131348 207 293.487579 207 286.200012 L 207 199.800003 C 207 192.512421 207 188.868652 205.469955 186.136551 C 204.388611 184.205658 202.794342 182.611404 200.863464 181.53006 C 198.131363 180 194.487579 180 187.200012 180 L 131.800003 180 C 124.512428 180 120.868645 180 118.136543 181.530045 C 116.20565 182.611389 114.611397 184.205658 113.530045 186.136536 C 112 188.868637 112 192.512421 112 199.799988 Z"/>
    <linearGradient id="linearGradient2" x1="0" y1="243" x2="95" y2="243" gradientUnits="userSpaceOnUse">
        <stop offset="0" stop-color="#000000" stop-opacity="0"/>
        <stop offset="1" stop-color="#828282" stop-opacity="1"/>
    </linearGradient>
    <path id="Rounded-Rectangle-copy-28" fill="url(#linearGradient2)" fill-rule="evenodd" stroke="none" d="M 0 286.200012 C 0 293.487579 0 297.131348 1.530048 299.863464 C 2.6114 301.794342 4.205652 303.388611 6.136545 304.46994 C 8.868642 306 12.512428 306 19.799999 306 L 75.199997 306 C 82.487572 306 86.131355 306 88.863449 304.46994 C 90.794342 303.388611 92.388596 301.794342 93.469948 299.863464 C 94.999992 297.131348 94.999992 293.487579 94.999992 286.200012 L 95 199.800003 C 95 192.512421 95 188.868652 93.469955 186.136551 C 92.388603 184.205658 90.79435 182.611404 88.863457 181.53006 C 86.131363 180 82.487572 180 75.200005 180 L 19.799999 180 C 12.512427 180 8.868642 180 6.136544 181.530045 C 4.205651 182.611389 2.611399 184.205658 1.530047 186.136536 C -1e-06 188.868637 -1e-06 192.512421 -1e-06 199.799988 Z"/>
    <path id="Rounded-Rectangle-copy-35" fill="#d1d1d1" fill-rule="evenodd" stroke="none" d="M 226.530045 299.863464 C 225 297.131348 225 293.487579 225 286.200012 L 225 189.699997 C 225 178.768646 225 173.302963 222.704926 169.204819 C 221.082901 166.308472 218.691528 163.917099 215.795181 162.295074 C 213.159393 160.81897 209.957916 160.292236 205.100433 160.104279 C 203.554108 159.631409 202.148132 159.040588 200.829987 158.302383 C 196.163666 155.689117 192.310883 151.836334 189.697617 147.170013 C 186 140.567444 186 131.761627 186 114.149994 L 186 47.850006 C 186 30.238373 186 21.432556 189.697617 14.829987 C 192.310883 10.163666 196.163666 6.310883 200.829987 3.697632 C 207.432556 0 216.238373 0 233.850006 0 L 417.150024 0 C 434.761658 0 443.567474 0 450.170044 3.697632 C 454.836365 6.310883 458.689117 10.163666 461.302399 14.829987 C 465 21.432556 465 30.238373 465 47.850006 L 464.999969 114.149994 C 464.999969 131.761627 464.999969 140.567444 461.302368 147.170013 C 458.689117 151.836334 454.836334 155.689117 450.170013 158.302383 C 443.567444 162 434.761627 162 417.149994 162 L 354 162 L 354 162.105057 C 345.069458 162.344284 339.417816 163.128296 334.829987 165.697617 C 330.163666 168.310883 326.310883 172.163666 323.697601 176.829987 C 320.513855 182.514984 320.071411 189.833435 320.009918 203 L 320 203 L 320 286.200012 C 320 293.487579 320 297.131348 318.46994 299.863464 C 317.388611 301.794342 315.794342 303.388611 313.863464 304.46994 C 311.131348 306 307.487579 306 300.200012 306 L 244.800003 306 C 237.512421 306 233.868637 306 231.136551 304.46994 C 229.205658 303.388611 227.611404 301.794342 226.530045 299.863464 Z"/>
    <text id="text1" xml:space="preserve" x="261.498047" y="114" font-family="Helvetica" font-size="72" fill="#000000">/</text>
    <text id="text2" xml:space="preserve" x="261.498047" y="274" font-family="Helvetica" font-size="72" fill="#000000">/</text>
    <path id="Rounded-Rectangle-copy-36" fill="none" stroke="#469dff" stroke-width="7" stroke-linecap="round" stroke-linejoin="round" d="M 337 124.199997 C 337 131.487579 337 135.131363 338.53006 137.863449 C 339.611389 139.794342 341.205658 141.388596 343.136536 142.469955 C 345.868652 144 349.512421 144 356.799988 144 L 412.200012 144 C 419.487579 144 423.131348 144 425.863464 142.469955 C 427.794342 141.388596 429.388611 139.794342 430.46994 137.863449 C 432 135.131363 432 131.487579 432 124.199997 L 432 37.799988 C 432 30.512421 432 26.868652 430.469971 24.136536 C 429.388611 22.205658 427.794342 20.611389 425.863464 19.53006 C 423.131348 18 419.487579 18 412.200012 18 L 356.799988 18 C 349.512421 18 345.868652 18 343.136536 19.530029 C 341.205658 20.611389 339.611389 22.205658 338.53006 24.136536 C 337 26.868652 337 30.512421 337 37.799988 Z"/>
    <text id="text3" xml:space="preserve" x="362.685547" y="109" font-family="SF Pro" font-size="72" fill="#000000">รท</text>
</svg>
