<?xml version="1.0" encoding="UTF-8"?>
<!-- Generated by Pixelmator Pro 3.6.15 -->
<svg width="1434" height="1314" viewBox="0 0 1434 1314" xmlns="http://www.w3.org/2000/svg">
    <path id="Shape" fill="#ffffff" fill-rule="evenodd" stroke="none" d="M 1041.5 819.356018 C 1036 819.626892 1029.025024 819.49585 1026 819.06488 C 1022.974976 818.63385 1017.716187 817.55957 1014.313721 816.677612 C 1010.911255 815.795654 1004.546265 813.692993 1000.169312 812.005066 C 995.792358 810.317078 989.457886 807.156555 986.092773 804.981567 C 982.727783 802.806641 977.949097 799.00177 975.473633 796.526306 C 972.998291 794.050842 969.231323 789.330994 967.102783 786.037659 C 964.974243 782.744385 962.06958 777.144714 960.648193 773.593994 C 959.226685 770.043213 957.164307 763.704346 956.065063 759.507507 C 954.96582 755.31073 952.954712 745.042175 951.595825 736.688477 C 950.237061 728.334839 948.54126 714.75 947.827393 706.5 C 947.113647 698.25 946.535767 678.674988 946.543213 663 C 946.550781 647.324951 947.131104 625.949951 947.833008 615.5 C 948.53479 605.050049 949.746582 589.974976 950.525757 582 C 951.304932 574.025024 952.392212 563.224976 952.942139 558 C 953.491943 552.775024 954.826172 541.75 955.907227 533.5 C 956.988281 525.25 958.841064 511.974976 960.024658 504 C 961.20813 496.025024 963.459473 481.849976 965.027466 472.5 C 966.595459 463.150024 969.702393 445.599976 971.931763 433.5 C 974.161133 421.400024 977.796387 402.724976 980.01001 392 C 982.223755 381.275024 986.5448 361.25 989.612305 347.5 C 992.679932 333.75 998.976929 307.199951 1003.605835 288.5 C 1008.234619 269.800049 1013.864136 247.974976 1016.115967 240 C 1018.367676 232.025024 1022.23584 219.199951 1024.711914 211.5 C 1027.187988 203.800049 1031.177979 191.650024 1033.578491 184.5 C 1035.979126 177.349976 1040.621704 163.849976 1043.895386 154.5 C 1047.169067 145.150024 1051.176392 133.900024 1052.800781 129.5 C 1054.425049 125.099976 1058.08667 115.425049 1060.937744 108 C 1063.78894 100.574951 1068.83728 88.199951 1072.156494 80.5 C 1075.475708 72.800049 1081.35498 60.566406 1085 55 C 1089.943115 47.451172 1102.889526 33.639893 1110.432739 28.106079 C 1117.820679 22.686157 1129.632935 16.286987 1136.071045 13.004639 C 1142.509155 9.72229 1151.897095 5.283325 1157.138306 3.789917 C 1165.924561 1.286499 1168.682617 0.898315 1179 0.521606 C 1185.870483 0.270752 1197.531982 1.332886 1204.904419 2.350952 C 1212.276855 3.369019 1224.258789 5.713745 1231.530884 7.561646 C 1238.803101 9.409424 1249.196045 12.819092 1254.626465 15.13855 C 1260.056885 17.45813 1267.629761 21.188354 1271.454956 23.427979 C 1275.495972 25.793945 1282.199463 31.270752 1287.454956 36.5 C 1292.632446 41.651733 1298.11438 48.279297 1300.275635 52 C 1302.352173 55.574951 1305.125122 61.88562 1306.437744 66.023682 C 1307.750366 70.161621 1309.376831 77.325195 1310.05188 81.942505 C 1310.781494 86.932495 1311.032349 94.099487 1310.670288 99.611938 C 1310.335205 104.712769 1309.161621 113.299316 1308.062378 118.693115 C 1306.963013 124.086914 1304.263794 134.868164 1302.063965 142.651611 C 1299.864258 150.434937 1295.825195 163.709961 1293.088379 172.151611 C 1290.351563 180.59314 1286.314453 192.675049 1284.117065 199 C 1281.919678 205.324951 1278.573486 214.775024 1276.68103 220 C 1274.788574 225.224976 1270.319824 237.150024 1266.750366 246.5 C 1263.18103 255.849976 1257.109863 271.375 1253.258789 281 C 1249.407837 290.625 1242.852417 308.849976 1238.691284 321.5 C 1234.530029 334.150024 1227.761597 355.300049 1223.650146 368.5 C 1219.538696 381.699951 1212.797729 403.75 1208.670166 417.5 C 1204.542725 431.25 1197.486206 455.324951 1192.989136 471 C 1188.492065 486.675049 1181.900146 510.074951 1178.340576 523 C 1174.780884 535.925049 1169.151245 557.074951 1165.829956 570 C 1162.508789 582.925049 1157.863892 601.614014 1155.507813 611.531006 C 1153.151855 621.44812 1150.013184 635.398193 1148.532959 642.531006 C 1147.052734 649.66394 1144.79541 661.349976 1143.516724 668.5 C 1142.237915 675.650024 1140.450928 687.575012 1139.545532 695 C 1138.640015 702.424988 1136.975342 713.224976 1135.846069 719 C 1134.716797 724.775024 1132.238281 734.674988 1130.338135 741 C 1128.43811 747.325012 1124.453979 757.450012 1121.484375 763.5 C 1118.514893 769.549988 1113.003784 778.549988 1109.237549 783.5 C 1105.471313 788.450012 1099.039673 795.338074 1094.944946 798.806885 C 1090.405518 802.652405 1083.597412 807.034912 1077.5 810.03656 C 1072 812.74408 1063.900024 815.837769 1059.5 816.911438 C 1055.099976 817.985046 1047 819.085144 1041.5 819.356018 Z"/>
    <path id="path1" fill="#ffffff" fill-rule="evenodd" stroke="none" d="M 616.928223 795.509949 C 615.854248 795.897522 614.827332 795.035706 613.685669 792.788574 C 612.766724 790.979858 610.904175 784.406311 609.546631 778.180664 C 608.189087 771.955078 605.480408 760.610596 603.527405 752.970764 C 601.574402 745.330933 597.925293 732.473755 595.418335 724.399231 C 592.911316 716.324768 588.906433 704.494202 586.518616 698.109192 C 584.130737 691.724121 580.179565 681.775024 577.738281 676 C 575.297058 670.224976 570.031433 658.974976 566.037048 651 C 562.042603 643.025024 555.437195 630.875 551.358398 624 C 547.279541 617.125 540.009888 605.998291 535.203552 599.274048 C 530.397217 592.549805 521.572021 581.377075 515.592041 574.445923 C 509.612 567.514648 499.992188 557.575317 494.214661 552.358398 C 488.437134 547.141479 478.262817 538.689697 471.605042 533.576538 C 464.947266 528.463501 454.549988 520.892822 448.5 516.752808 C 442.450012 512.612793 432.325012 506.093384 426 502.265137 C 419.674988 498.437012 408.992676 492.282471 402.261475 488.588501 C 395.530273 484.894531 384.955322 479.495605 378.761475 476.591064 C 372.567688 473.686401 362.099976 469.029175 355.5 466.241455 C 348.900024 463.453857 336.335693 458.632568 327.579285 455.527466 C 318.822876 452.422363 303.747864 447.646851 294.079285 444.915405 C 284.410645 442.183838 266.599976 437.965576 254.5 435.541626 C 242.400024 433.117554 226.875 430.423462 220 429.554688 C 213.125 428.686035 200.075012 427.315063 191 426.508179 C 181.924988 425.701294 164.790833 425.03186 152.924072 425.020508 C 139.13913 425.007446 127.403503 424.449219 120.424072 423.474731 C 114.415833 422.635864 104.549988 420.776367 98.5 419.342529 C 92.450012 417.908813 83.674988 415.392944 79 413.751831 C 74.325012 412.110718 66.674988 408.846191 62 406.497437 C 57.325012 404.148682 50.01709 399.896484 45.760193 397.047974 C 41.503296 394.199463 34.942657 388.860962 31.18103 385.184448 C 27.419373 381.508057 22.476685 375.947876 20.197266 372.828491 C 17.917847 369.709106 14.21347 363.509033 11.965332 359.050537 C 9.717194 354.592041 6.823486 347.421753 5.534882 343.116577 C 4.246277 338.811401 2.633545 331.827271 1.95105 327.596436 C 1.268524 323.365601 0.745331 313.210815 0.788361 305.030151 C 0.83139 296.849487 1.514099 286.404053 2.305511 281.818115 C 3.096924 277.232178 4.993835 270.356934 6.520905 266.539917 C 8.047974 262.722778 10.770844 257.102295 12.571777 254.049927 C 14.372681 250.997437 17.419342 246.302734 19.342102 243.617065 C 21.264862 240.931519 25.686981 235.802734 29.169006 232.219727 C 32.651062 228.636719 37.997223 223.616089 41.049347 221.062744 C 44.101501 218.509399 49.726807 214.34082 53.550018 211.799194 C 57.37323 209.257446 64.101013 205.358032 68.500671 203.133789 C 72.900299 200.909546 79.810242 197.725342 83.856079 196.057739 C 87.901947 194.390259 95.449554 191.668579 100.62854 190.009644 C 105.807526 188.350586 114.689453 185.895874 120.36615 184.554565 C 126.042816 183.213257 134.695221 181.453857 139.593689 180.644897 C 144.492157 179.835938 152.774994 178.678711 158 178.073242 C 163.225006 177.467773 174.371674 176.528564 182.770416 175.986206 C 191.169159 175.443726 202.857086 175 208.743652 175 C 214.630188 175 226.883484 175.444336 235.973206 175.987427 C 245.062927 176.530518 258.125 177.461548 265 178.056396 C 271.875 178.651123 282.674988 179.776978 289 180.55835 C 295.325012 181.3396 305 182.688354 310.5 183.555542 C 316 184.422729 325 186.039185 330.5 187.147705 C 336 188.256104 345 190.2229 350.5 191.518188 C 356 192.813599 366.125 195.512695 373 197.516357 C 379.875 199.519897 389.775024 202.650513 395 204.473267 C 400.224976 206.295898 409 209.592773 414.5 211.799561 C 420 214.006348 429.674988 218.251953 436 221.234253 C 442.325012 224.216431 452.900024 229.719604 459.5 233.463379 C 466.099976 237.207031 476.900024 243.918701 483.5 248.378174 C 490.099976 252.837646 499.940002 260.050781 505.366638 264.407593 C 510.793274 268.764282 520.01825 276.854248 525.866638 282.385132 C 531.714966 287.916138 539.372742 295.604736 542.883789 299.470703 C 546.394897 303.336792 552.726501 310.775024 556.953979 316 C 561.181519 321.224976 568.032959 330.449951 572.179504 336.5 C 576.325989 342.550049 582.213074 351.775024 585.261841 357 C 588.310669 362.224976 593.552673 372.000977 596.910767 378.724365 C 600.268799 385.447876 604.988403 395.572876 607.398621 401.224365 C 609.808899 406.875977 613.811707 417.125 616.293701 424 C 618.775696 430.875 622.649292 443.025024 624.901672 451 C 627.153992 458.974976 630.302124 471.349976 631.897461 478.5 C 633.492798 485.650024 635.731934 496.900024 636.873291 503.5 C 638.014648 510.099976 639.819946 522.474976 640.885071 531 C 641.950256 539.525024 643.383423 553.51062 644.070007 562.079102 C 644.756531 570.647705 645.340149 592.25354 645.366943 610.092163 C 645.393738 627.930908 644.857605 649.945313 644.175476 659.013062 C 643.493286 668.080872 642.497864 679.549988 641.963318 684.5 C 641.428772 689.450012 640.495667 697.549988 639.889709 702.5 C 639.283813 707.450012 637.687317 718.474976 636.34198 727 C 634.996643 735.525024 632.348511 749.700012 630.457214 758.5 C 628.565918 767.299988 625.886597 778.166077 624.503113 782.64679 C 623.11969 787.127502 621.203003 791.727112 620.243896 792.868164 C 619.284729 794.009155 617.792725 795.197937 616.928223 795.509949 Z"/>
    <path id="path2" fill="#ffffff" fill-rule="evenodd" stroke="none" d="M 417.5 1313.425049 C 398.25 1313.65625 376.650024 1313.485107 369.5 1313.044434 C 362.349976 1312.603882 348.625 1311.514526 339 1310.623779 C 329.375 1309.73291 317.674988 1308.506104 313 1307.897461 C 308.325012 1307.288818 297.075012 1305.68457 288 1304.332397 C 278.924988 1302.980225 264.525024 1300.521729 256 1298.868774 C 247.474976 1297.215942 234.200012 1294.302002 226.5 1292.393433 C 218.799988 1290.484863 205.974976 1286.867188 198 1284.354248 C 190.024994 1281.841187 178.325012 1277.747314 172 1275.256592 C 165.674988 1272.765869 156.653748 1268.80542 151.952789 1266.455811 C 147.251831 1264.106079 139.240692 1259.397705 134.150269 1255.99292 C 129.059845 1252.587891 120.793121 1245.909058 115.779785 1241.151001 C 110.766418 1236.392944 103.965149 1229.125 100.665802 1225 C 97.366486 1220.875 92.226074 1213.728271 89.242706 1209.118408 C 86.259338 1204.508545 81.627319 1196.353149 78.94931 1190.995361 C 76.271301 1185.637573 72.665253 1177.709351 70.935852 1173.376953 C 69.206482 1169.044678 66.473663 1161.449951 64.862976 1156.5 C 63.252258 1151.550049 60.819305 1143 59.45636 1137.5 C 58.093445 1132 56.112946 1122.550049 55.055237 1116.5 C 53.997559 1110.449951 52.539917 1099.650024 51.816071 1092.5 C 51.092224 1085.349976 50.5 1067.800049 50.5 1053.5 C 50.5 1034.531616 50.985779 1023.578552 52.296204 1013 C 53.284119 1005.025024 55.45993 992.900391 57.131348 986.056458 C 58.802734 979.212463 61.970886 969.087463 64.171692 963.556458 C 66.372467 958.025391 70.271667 949.904419 72.836548 945.509766 C 75.854828 940.338318 80.675049 934.334717 86.5 928.49176 C 91.673889 923.301941 98.263306 917.866577 102 915.706421 C 105.575012 913.639709 111.875 910.881104 116 909.576111 C 120.125 908.271179 128.450012 906.695313 134.5 906.07428 C 143.377289 905.163025 147.815674 905.225708 157.5 906.399231 C 164.100006 907.199036 174.899994 909.257446 181.5 910.97345 C 188.100006 912.689514 200.024994 916.060974 208 918.465515 C 215.974976 920.870117 227.450012 924.212769 233.5 925.893616 C 239.549988 927.574463 252.599976 930.970398 262.5 933.440186 C 272.400024 935.909912 288.599976 939.716064 298.5 941.898254 C 308.400024 944.080444 325.724976 947.670532 337 949.87616 C 348.275024 952.081787 363.125 954.561401 370 955.386414 C 376.875 956.211426 387.674988 957.348755 394 957.913879 C 400.325012 958.478943 412.025024 959.398499 420 959.957275 C 427.974976 960.516113 445.299988 961.541809 458.5 962.236633 C 473.885132 963.046509 511.575195 963.5 563.5 963.5 C 615.567871 963.5 653.072449 963.047607 668.5 962.233398 C 681.700012 961.536743 699.924988 960.513489 709 959.959473 C 718.074951 959.405457 731.349976 958.504028 738.5 957.956299 C 745.650024 957.40863 756.449951 956.498413 762.5 955.933716 C 768.550049 955.368958 778.224976 954.432861 784 953.853455 C 789.775024 953.274048 805.074951 951.492493 818 949.89447 C 830.925049 948.296387 851.400024 945.377258 863.5 943.407532 C 875.599976 941.437805 895.400024 937.806519 907.5 935.337952 C 919.599976 932.869385 937.375 928.839417 947 926.382446 C 956.625 923.925537 972.150024 919.722412 981.5 917.042175 C 990.849976 914.362 1006.375 909.682495 1016 906.64325 C 1025.625 903.604004 1040.474976 898.672546 1049 895.684448 C 1057.525024 892.696411 1071.699951 887.553467 1080.5 884.255737 C 1089.300049 880.958008 1104.375 875.084167 1114 871.20282 C 1123.625 867.321472 1140.275024 860.346069 1151 855.702026 C 1161.724976 851.057922 1179.050049 843.271912 1189.5 838.399658 C 1199.949951 833.527466 1219.974976 823.816589 1234 816.819885 C 1248.025024 809.823181 1273.224976 796.815186 1290 787.913208 C 1306.775024 779.01123 1330.949219 766.412781 1343.720581 759.916687 C 1356.491943 753.420593 1370.577637 746.956848 1375.022217 745.552795 C 1380.658691 743.772217 1385.280762 743.01062 1390.301636 743.035156 C 1394.260742 743.054443 1400.221069 743.654602 1403.546631 744.368774 C 1406.872314 745.082886 1412.077271 746.804443 1415.113281 748.194336 C 1418.14917 749.584229 1422.336548 752.471619 1424.418579 754.610718 C 1426.500488 756.749817 1429.10144 760.254761 1430.198486 762.399475 C 1431.295532 764.544189 1432.609741 769.240295 1433.118774 772.835266 C 1433.721558 777.091431 1433.675415 782.067383 1432.986328 787.099548 C 1432.404419 791.349915 1430.645508 798.918884 1429.077759 803.919373 C 1427.51001 808.919922 1423.041016 819.421204 1419.146606 827.255615 C 1415.252197 835.090027 1409.091309 846.224976 1405.455566 852 C 1401.819946 857.775024 1395.167603 867.625977 1390.672607 873.891052 C 1386.177734 880.156128 1377.949097 890.956177 1372.386841 897.891052 C 1366.824585 904.825989 1357.181763 916.317627 1350.958496 923.428101 C 1344.735107 930.538574 1331.736084 944.445984 1322.071655 954.333557 C 1312.407227 964.221069 1297.974976 978.372742 1290 985.781738 C 1282.025024 993.190735 1269.425049 1004.504395 1262 1010.923157 C 1254.574951 1017.341919 1242.875 1027.09375 1236 1032.593872 C 1229.125 1038.093994 1218.775024 1046.185059 1213 1050.574219 C 1207.224976 1054.963135 1197.324951 1062.189941 1191 1066.633545 C 1184.675049 1071.077148 1174.099976 1078.288818 1167.5 1082.659424 C 1160.900024 1087.030029 1149.875 1094.006836 1143 1098.163208 C 1136.125 1102.31958 1124.199951 1109.319458 1116.5 1113.718384 C 1108.800049 1118.11731 1096.199951 1125.114502 1088.5 1129.267578 C 1080.800049 1133.420898 1065.724976 1141.193237 1055 1146.539795 C 1044.275024 1151.88623 1026.724976 1160.297852 1016 1165.232422 C 1005.275024 1170.166992 988.625 1177.578857 979 1181.703125 C 969.375 1185.827515 953.849976 1192.281128 944.5 1196.044434 C 935.150024 1199.807861 920.75 1205.445679 912.5 1208.572998 C 904.25 1211.700439 890.75 1216.647827 882.5 1219.567261 C 874.25 1222.486816 858.5 1227.841187 847.5 1231.46582 C 836.5 1235.090576 818.949951 1240.575195 808.5 1243.654053 C 798.050049 1246.73291 785 1250.963989 779.5 1253.056641 C 774 1255.14917 763.875 1258.865234 757 1261.314575 C 750.125 1263.763916 738.199951 1267.624756 730.5 1269.894409 C 722.800049 1272.164063 707.724976 1276.231445 697 1278.933228 C 686.275024 1281.63501 670.525024 1285.256592 662 1286.981201 C 653.474976 1288.705811 644.25 1290.516846 641.5 1291.005737 C 638.75 1291.494629 629.974976 1293.011597 622 1294.376831 C 614.025024 1295.742065 601.200012 1297.769775 593.5 1298.88269 C 585.799988 1299.995605 572.075012 1301.825439 563 1302.94873 C 553.924988 1304.072266 537.724976 1305.86084 527 1306.923706 C 516.275024 1307.98645 500.638245 1309.348633 492.251587 1309.950562 C 483.86499 1310.55249 471.48999 1311.485962 464.751587 1312.024902 C 458.013245 1312.563721 436.75 1313.193848 417.5 1313.425049 Z"/>
</svg>
